<svg width="12" height="12" viewBox="0 0 12 12" fill="none" xmlns="http://www.w3.org/2000/svg">
<path d="M0.45 11.55C0.75 11.85 1.05 12 1.5 12C1.95 12 2.25 11.85 2.55 11.55L6 8.1L9.45 11.55C9.75 11.85 10.2 12 10.5 12C10.8 12 11.25 11.85 11.55 11.55C12.15 10.95 12.15 10.05 11.55 9.45L8.1 6L11.55 2.55C12.15 1.95 12.15 1.05 11.55 0.45C10.95 -0.15 10.05 -0.15 9.45 0.45L6 3.9L2.55 0.45C1.95 -0.15 1.05 -0.15 0.45 0.45C-0.15 1.05 -0.15 1.95 0.45 2.55L3.9 6L0.45 9.45C-0.15 10.05 -0.15 10.95 0.45 11.55Z" fill="#F75555"/>
</svg>
