<svg width="12" height="12" viewBox="0 0 12 12" fill="none" xmlns="http://www.w3.org/2000/svg">
<path d="M6.29453 11.2508C5.21179 11.2548 4.15164 10.9411 3.24533 10.3487C2.33901 9.75635 1.62631 8.91118 1.19545 7.91784C0.764597 6.92451 0.634496 5.82664 0.821256 4.76012C1.00802 3.69359 1.50344 2.70525 2.2462 1.91744C2.57407 1.56442 2.94898 1.25821 3.36036 1.00744C3.42548 0.966836 3.49795 0.939458 3.57364 0.926866C3.64934 0.914274 3.72677 0.916715 3.80152 0.934048C3.87627 0.951382 3.94688 0.983269 4.00931 1.02789C4.07173 1.07251 4.12476 1.12899 4.16536 1.1941C4.20596 1.25922 4.23334 1.33169 4.24593 1.40738C4.25852 1.48308 4.25608 1.56051 4.23875 1.63526C4.22142 1.71001 4.18953 1.78062 4.14491 1.84305C4.10029 1.90547 4.04381 1.9585 3.97869 1.9991C3.64897 2.19516 3.34852 2.4367 3.08619 2.7166C2.60233 3.23853 2.25311 3.87062 2.0688 4.55805C1.8845 5.24548 1.87069 5.96749 2.02856 6.66147C2.18644 7.35545 2.51123 8.00043 2.97477 8.54048C3.43832 9.08053 4.02661 9.49934 4.68864 9.76059C5.35067 10.0218 6.06643 10.1176 6.77386 10.0397C7.48128 9.96169 8.159 9.71231 8.74824 9.31316C9.33748 8.914 9.82045 8.37712 10.1552 7.74908C10.4901 7.12104 10.6666 6.4208 10.6695 5.7091C10.6695 5.55439 10.731 5.40602 10.8404 5.29662C10.9498 5.18723 11.0982 5.12577 11.2529 5.12577C11.4076 5.12577 11.5559 5.18723 11.6653 5.29662C11.7747 5.40602 11.8362 5.55439 11.8362 5.7091C11.8347 7.17837 11.2503 8.58702 10.2114 9.62595C9.17244 10.6649 7.7638 11.2492 6.29453 11.2508Z" fill="#00A9F1"/>
<path d="M6.8776 1.36882H6.8076C6.63661 1.35994 6.46527 1.35994 6.29427 1.36882C6.13956 1.36882 5.99119 1.30736 5.88179 1.19796C5.7724 1.08857 5.71094 0.940192 5.71094 0.785483C5.71094 0.630773 5.7724 0.4824 5.88179 0.373004C5.99119 0.263608 6.13956 0.202149 6.29427 0.202149C6.51252 0.202022 6.73062 0.213705 6.9476 0.237149C7.02421 0.241746 7.09916 0.261385 7.16817 0.294947C7.23719 0.328509 7.29891 0.375335 7.34983 0.432753C7.40075 0.49017 7.43986 0.557054 7.46493 0.629587C7.49 0.702119 7.50053 0.778878 7.49594 0.855483C7.49134 0.932087 7.4717 1.00704 7.43814 1.07605C7.40458 1.14506 7.35775 1.20679 7.30033 1.25771C7.24292 1.30863 7.17603 1.34774 7.1035 1.37281C7.03097 1.39788 6.95421 1.40841 6.8776 1.40382V1.36882Z" fill="#00A9F1"/>
<path d="M9.64056 2.63443C9.49629 2.64034 9.35496 2.59254 9.2439 2.50027C8.96846 2.2477 8.6628 2.03021 8.3339 1.85277C8.19775 1.77541 8.09791 1.64714 8.05634 1.49617C8.01477 1.34521 8.03488 1.18391 8.11223 1.04777C8.18959 0.911621 8.31786 0.811782 8.46882 0.770211C8.61979 0.72864 8.78109 0.748744 8.91723 0.826099C9.32307 1.04371 9.69945 1.31227 10.0372 1.62527C10.1523 1.72826 10.2218 1.87269 10.2306 2.02687C10.2393 2.18105 10.1866 2.33241 10.0839 2.44777C10.0275 2.50861 9.95882 2.55673 9.88237 2.58892C9.80592 2.62111 9.72348 2.63663 9.64056 2.63443Z" fill="#00A9F1"/>
<path d="M10.972 4.65324C10.85 4.65192 10.7315 4.61238 10.6331 4.54018C10.5348 4.46798 10.4615 4.36675 10.4237 4.25074C10.3672 4.08938 10.3009 3.93159 10.2254 3.77824C10.192 3.64818 10.2045 3.51058 10.2607 3.38867C10.317 3.26675 10.4136 3.16798 10.5343 3.10903C10.6549 3.05008 10.7922 3.03455 10.923 3.06508C11.0537 3.0956 11.17 3.1703 11.252 3.27657C11.3456 3.46659 11.4293 3.66129 11.5029 3.8599C11.5533 4.00535 11.5442 4.16485 11.4776 4.30363C11.4109 4.4424 11.2921 4.5492 11.147 4.60074C11.0918 4.62732 11.0328 4.64504 10.972 4.65324Z" fill="#00A9F1"/>
<path d="M3.66797 4.8341C3.51326 4.8341 3.36489 4.77264 3.25549 4.66324C3.14609 4.55385 3.08464 4.40547 3.08464 4.25077V2.0866H0.751302C0.596592 2.0866 0.448219 2.02514 0.338823 1.91574C0.229427 1.80635 0.167969 1.65797 0.167969 1.50326C0.167969 1.34856 0.229427 1.20018 0.338823 1.09079C0.448219 0.98139 0.596592 0.919932 0.751302 0.919932H3.66797C3.74474 0.919488 3.82084 0.934202 3.89191 0.963232C3.96299 0.992261 4.02763 1.03503 4.08214 1.0891C4.1362 1.1436 4.17897 1.20825 4.208 1.27932C4.23703 1.35039 4.25175 1.42649 4.2513 1.50326V4.25077C4.2513 4.40547 4.18984 4.55385 4.08045 4.66324C3.97105 4.77264 3.82268 4.8341 3.66797 4.8341Z" fill="#00A9F1"/>
</svg>
