<svg width="10" height="6" viewBox="0 0 10 6" fill="none" xmlns="http://www.w3.org/2000/svg">
<path d="M8.26692 0.269058L4.02919 4.12271L1.75855 1.97568C1.66742 1.88533 1.55728 1.81244 1.43461 1.76129C1.31193 1.71014 1.17921 1.68177 1.04426 1.67785C0.90931 1.67393 0.774859 1.69455 0.648828 1.73847C0.522798 1.7824 0.407737 1.84875 0.310425 1.93363C0.213112 2.0185 0.135515 2.12017 0.0822067 2.23266C0.028898 2.34514 0.000954884 2.46617 2.40483e-05 2.58859C-0.000906788 2.71102 0.0251935 2.83238 0.0767868 2.94552C0.12838 3.05867 0.204423 3.1613 0.300436 3.24738L2.63382 5.44947C2.80784 5.6199 3.01817 5.75656 3.25209 5.85119C3.48602 5.94581 3.73867 5.99643 3.99479 5.99999H4.02818C4.27918 6.00074 4.52785 5.95628 4.75974 5.86917C4.99164 5.78207 5.20214 5.65407 5.37903 5.49259L9.70176 1.57288C9.79618 1.48745 9.87111 1.38599 9.92228 1.2743C9.97345 1.16262 9.99986 1.04288 10 0.92194C10.0001 0.800997 9.97401 0.681214 9.9231 0.569428C9.87219 0.457642 9.79749 0.356044 9.70328 0.270434C9.60907 0.184824 9.49718 0.116878 9.37401 0.0704773C9.25084 0.0240763 9.1188 0.000128316 8.98542 5.14236e-07C8.85204 -0.000127287 8.71994 0.0235678 8.59666 0.0697326C8.47338 0.115897 8.36134 0.183628 8.26692 0.269058Z" fill="#4ADE80"/>
</svg>
