<svg width="10" height="12" viewBox="0 0 10 12" fill="none" xmlns="http://www.w3.org/2000/svg">
<path d="M9.5 8.97973V6.70946C9.5 5.63108 8.76875 4.77973 7.8125 4.49595V3.58784C7.8125 1.99865 6.575 0.75 5 0.75C3.425 0.75 2.1875 1.99865 2.1875 3.58784V4.49595C1.23125 4.72297 0.5 5.63108 0.5 6.70946V8.97973C0.5 10.2284 1.5125 11.25 2.75 11.25H7.25C8.4875 11.25 9.5 10.2284 9.5 8.97973ZM3.3125 3.58784C3.3125 2.62297 4.04375 1.88514 5 1.88514C5.95625 1.88514 6.6875 2.62297 6.6875 3.58784V4.43919H3.3125V3.58784ZM1.625 8.97973V6.70946C1.625 6.08514 2.13125 5.57432 2.75 5.57432H7.25C7.86875 5.57432 8.375 6.08514 8.375 6.70946V8.97973C8.375 9.60405 7.86875 10.1149 7.25 10.1149H2.75C2.13125 10.1149 1.625 9.60405 1.625 8.97973Z" fill="#BDBDBD"/>
</svg>
