<svg width="24" height="24" viewBox="0 0 24 24" fill="none" xmlns="http://www.w3.org/2000/svg">
<path d="M19.5 13.5L13.5 13.5V19.5C13.5 19.8978 13.342 20.2794 13.0607 20.5607C12.7794 20.842 12.3978 21 12 21C11.6022 21 11.2206 20.842 10.9393 20.5607C10.658 20.2794 10.5 19.8978 10.5 19.5V13.5H4.5C4.10218 13.5 3.72064 13.342 3.43934 13.0607C3.15804 12.7794 3 12.3978 3 12C3 11.6022 3.15804 11.2206 3.43934 10.9393C3.72064 10.658 4.10218 10.5 4.5 10.5H10.5L10.5 4.5C10.5 4.10217 10.658 3.72064 10.9393 3.43934C11.2206 3.15803 11.6022 3 12 3C12.3978 3 12.7794 3.15803 13.0607 3.43934C13.342 3.72064 13.5 4.10217 13.5 4.5L13.5 10.5L19.5 10.5C19.8978 10.5 20.2794 10.658 20.5607 10.9393C20.842 11.2206 21 11.6022 21 12C21 12.3978 20.842 12.7794 20.5607 13.0607C20.2794 13.342 19.8978 13.5 19.5 13.5Z" fill="#EF400F"/>
</svg>
