<svg width="18" height="18" viewBox="0 0 18 18" fill="none" xmlns="http://www.w3.org/2000/svg">
<g clip-path="url(#clip0_15153_6487)">
<path d="M9 18.0004C13.9706 18.0004 18 14.2225 18 9.56221C18 4.90193 13.9706 1.12402 9 1.12402C4.02944 1.12402 0 4.90193 0 9.56221C0 14.2225 4.02944 18.0004 9 18.0004Z" fill="url(#paint0_linear_15153_6487)"/>
<path d="M9 17.1225C13.9706 17.1225 18 13.3446 18 8.68428C18 4.024 13.9706 0.246094 9 0.246094C4.02944 0.246094 0 4.024 0 8.68428C0 13.3446 4.02944 17.1225 9 17.1225Z" fill="url(#paint1_linear_15153_6487)"/>
<path d="M17.9988 8.43819C17.999 10.3267 17.3239 12.1608 16.0815 13.6472C14.839 15.1337 13.1008 16.1867 11.1449 16.6378C9.18894 17.089 7.12814 16.9123 5.29191 16.136C3.45568 15.3597 1.95005 14.0287 1.01571 12.3556C0.0813746 10.6825 -0.227722 8.76409 0.137835 6.90692C0.503391 5.04975 1.52249 3.3611 3.03223 2.11093C4.54196 0.860757 6.45515 0.121241 8.46596 0.0106016C10.4768 -0.100038 12.4691 0.424587 14.1244 1.50061C15.3201 2.27735 16.2972 3.31425 16.9719 4.5225C17.6467 5.73074 17.999 7.07433 17.9988 8.43819Z" fill="url(#paint2_linear_15153_6487)"/>
<path d="M9.00028 15.4739C13.1447 15.4739 16.5045 12.3238 16.5045 8.4381C16.5045 4.55236 13.1447 1.40234 9.00028 1.40234C4.85583 1.40234 1.49609 4.55236 1.49609 8.4381C1.49609 12.3238 4.85583 15.4739 9.00028 15.4739Z" fill="url(#paint3_linear_15153_6487)"/>
<path d="M8.99709 14.3832C12.499 14.3832 15.3379 11.7215 15.3379 8.43819C15.3379 5.15484 12.499 2.49316 8.99709 2.49316C5.49514 2.49316 2.65625 5.15484 2.65625 8.43819C2.65625 11.7215 5.49514 14.3832 8.99709 14.3832Z" fill="url(#paint4_linear_15153_6487)"/>
<path d="M8.99709 14.2869C12.499 14.2869 15.3379 11.7316 15.3379 8.57951C15.3379 5.42738 12.499 2.87207 8.99709 2.87207C5.49514 2.87207 2.65625 5.42738 2.65625 8.57951C2.65625 11.7316 5.49514 14.2869 8.99709 14.2869Z" fill="url(#paint5_linear_15153_6487)"/>
<path d="M11.7697 10.4925L11.7938 9.05275C12.7185 7.93695 13.1984 6.55327 13.1504 5.14094C13.1467 5.0358 13.1005 4.9359 13.0212 4.86151C12.9418 4.78713 12.8353 4.74382 12.7231 4.74039C11.2113 4.69517 9.73038 5.14855 8.53832 6.02158L7.02523 6.04367C6.86376 6.0458 6.70601 6.08939 6.56911 6.1697C6.43222 6.25002 6.32143 6.36398 6.24879 6.4992L5.4111 8.0597C5.36846 8.14 5.3501 8.22971 5.35802 8.31909C5.36593 8.40848 5.39982 8.49412 5.45599 8.56673C5.51217 8.63933 5.58848 8.69611 5.67665 8.73091C5.76483 8.76571 5.86148 8.77719 5.95612 8.76411L6.49539 8.68852C6.48021 8.72975 6.46764 8.76362 6.46188 8.77688L6.38701 8.94378L6.50796 9.08466C6.56502 9.15142 6.64879 9.23928 6.75089 9.3404C6.41609 9.39617 6.10791 9.54776 5.86869 9.77434C5.57811 10.0468 5.42157 10.5597 5.2556 11.0997C5.17445 11.3653 5.09068 11.6397 4.99382 11.8694C4.95814 11.9469 4.94812 12.0327 4.96504 12.1157C4.98197 12.1986 5.02507 12.2749 5.08876 12.3346C5.15244 12.3943 5.23379 12.4347 5.32225 12.4506C5.41071 12.4665 5.50222 12.4571 5.58492 12.4236C5.82942 12.3328 6.12262 12.2538 6.40586 12.1782C6.98178 12.0231 7.52995 11.8763 7.81947 11.6038C8.07418 11.3679 8.23965 11.0604 8.29068 10.7281C8.40639 10.8263 8.50586 10.9048 8.58021 10.9608L8.73099 11.0742L8.909 11.004L8.95036 10.9888L8.86712 11.4973C8.85317 11.5861 8.86542 11.6767 8.90253 11.7593C8.93965 11.842 9.00021 11.9136 9.07765 11.9662C9.15508 12.0189 9.24643 12.0507 9.34177 12.0581C9.43711 12.0655 9.53279 12.0483 9.61843 12.0083L11.2828 11.2229C11.4277 11.1548 11.5498 11.0507 11.6357 10.9218C11.7216 10.793 11.768 10.6444 11.7697 10.4925ZM7.43937 11.245C7.24722 11.4252 6.74356 11.5602 6.25717 11.6912C6.02314 11.7541 5.78597 11.8184 5.55979 11.892C5.63832 11.6829 5.70743 11.4576 5.77445 11.2386C5.91372 10.7821 6.05822 10.3099 6.25036 10.1302C6.5645 9.8357 6.99801 9.74931 7.32785 9.88479C7.4467 9.99278 7.56921 10.1027 7.69016 10.2097C7.85141 10.5205 7.75979 10.9466 7.43937 11.245ZM10.9928 10.678L9.54565 11.3628L9.76764 10.0011L9.21267 10.25C9.17392 10.2677 9.00324 10.3241 8.90272 10.3585L8.8467 10.3771C8.40429 10.0188 7.51005 9.22407 7.12628 8.82744C7.13518 8.80142 7.14565 8.77246 7.15665 8.74055C7.19173 8.64238 7.24984 8.47744 7.26712 8.44112L7.53204 7.92324L6.09487 8.12941L6.82785 6.77311C6.8474 6.73665 6.87729 6.70595 6.91423 6.68439C6.95118 6.66283 6.99376 6.65123 7.03728 6.65088L8.77235 6.62536L8.85926 6.55909C9.89169 5.77516 11.1794 5.34655 12.508 5.34466C12.506 6.58548 12.0524 7.78851 11.2221 8.75479L11.1498 8.83578L11.1226 10.4827C11.122 10.5233 11.1096 10.5629 11.0868 10.5973C11.0639 10.6318 11.0314 10.6597 10.9928 10.678Z" fill="url(#paint6_linear_15153_6487)"/>
<path d="M11.2349 6.54565C11.1178 6.43576 10.9685 6.36091 10.806 6.33056C10.6435 6.30021 10.475 6.31574 10.3219 6.37517C10.1688 6.4346 10.038 6.53526 9.9459 6.66443C9.85383 6.7936 9.80469 6.94547 9.80469 7.10083C9.80469 7.25619 9.85383 7.40806 9.9459 7.53724C10.038 7.66641 10.1688 7.76707 10.3219 7.8265C10.475 7.88593 10.6435 7.90146 10.806 7.87111C10.9685 7.84076 11.1178 7.76591 11.2349 7.65602C11.3919 7.50874 11.4801 7.30905 11.4801 7.10083C11.4801 6.89262 11.3919 6.69293 11.2349 6.54565ZM10.3051 7.41745C10.2383 7.35484 10.1929 7.27507 10.1744 7.18823C10.156 7.10139 10.1655 7.01139 10.2016 6.92959C10.2378 6.8478 10.299 6.77789 10.3775 6.72871C10.456 6.67952 10.5483 6.65327 10.6428 6.65327C10.7372 6.65327 10.8295 6.67952 10.908 6.72871C10.9865 6.77789 11.0478 6.8478 11.0839 6.92959C11.12 7.01139 11.1295 7.10139 11.1111 7.18823C11.0927 7.27507 11.0472 7.35484 10.9805 7.41745C10.8908 7.50132 10.7694 7.54843 10.6428 7.54843C10.5161 7.54843 10.3947 7.50132 10.3051 7.41745Z" fill="url(#paint7_linear_15153_6487)"/>
<path d="M11.7166 10.4114L11.7407 8.97217C12.6654 7.85618 13.1452 6.47236 13.0972 5.05988C13.0935 4.95477 13.0472 4.85494 12.9679 4.78057C12.8886 4.70621 12.7821 4.66287 12.67 4.65932C11.1583 4.61421 9.67746 5.06739 8.48521 5.94002L6.97212 5.96211C6.81058 5.96423 6.65276 6.00787 6.51585 6.08828C6.37894 6.16869 6.2682 6.28279 6.19568 6.41813L5.35798 7.97814C5.31534 8.05844 5.29699 8.14815 5.3049 8.23753C5.31282 8.32692 5.3467 8.41256 5.40287 8.48517C5.45905 8.55777 5.53537 8.61455 5.62354 8.64935C5.71171 8.68415 5.80836 8.69563 5.90301 8.68255L6.44437 8.60499C6.42919 8.64623 6.41662 8.6801 6.41086 8.69335L6.33233 8.86074L6.45327 9.00212C6.51034 9.06838 6.59411 9.15625 6.6962 9.25737C6.36148 9.31336 6.05337 9.46491 5.814 9.69131C5.52343 9.96424 5.36688 10.4767 5.20091 11.0167C5.11976 11.2822 5.03599 11.5566 4.93913 11.7864C4.90346 11.8639 4.89343 11.9497 4.91036 12.0326C4.92728 12.1156 4.97038 12.1919 5.03407 12.2516C5.09776 12.3113 5.1791 12.3517 5.26756 12.3676C5.35603 12.3834 5.44753 12.374 5.53023 12.3406C5.77474 12.2498 6.06793 12.1712 6.35118 12.0951C6.92709 11.9395 7.47526 11.7928 7.76479 11.5203C8.01959 11.2845 8.18508 10.9769 8.23599 10.6446C8.3517 10.7428 8.45117 10.8213 8.52552 10.8773L8.67631 10.9912L8.85432 10.9205L8.89568 10.9052L8.81243 11.4143C8.79737 11.5036 8.80893 11.5951 8.84582 11.6787C8.88271 11.7622 8.9435 11.8346 9.02149 11.8878C9.09948 11.941 9.19163 11.973 9.28778 11.9802C9.38392 11.9875 9.48033 11.9696 9.56636 11.9287L11.2308 11.1409C11.3753 11.0727 11.4971 10.9687 11.5828 10.84C11.6684 10.7114 11.7148 10.5631 11.7166 10.4114ZM7.38625 11.1639C7.19411 11.3441 6.69044 11.4791 6.20405 11.6101C5.97002 11.673 5.73285 11.7378 5.50667 11.8109C5.58521 11.6018 5.65432 11.3765 5.72133 11.1576C5.8606 10.701 6.0051 10.2293 6.19725 10.0492C6.51138 9.75463 6.94489 9.66824 7.27473 9.80372C7.39358 9.9122 7.5161 10.0217 7.63704 10.1287C7.7983 10.4394 7.70667 10.863 7.38625 11.1639ZM10.9397 10.597L9.72238 11.1728C9.70081 11.1828 9.67672 11.1872 9.65271 11.1854C9.62869 11.1837 9.60563 11.1758 9.58601 11.1627C9.56639 11.1496 9.55093 11.1317 9.54129 11.111C9.53165 11.0903 9.52819 11.0676 9.53128 11.0451L9.69725 10.0251C9.69888 10.0153 9.69761 10.0052 9.69359 9.99604C9.68956 9.98684 9.68293 9.97885 9.67441 9.97294C9.66589 9.96702 9.65581 9.9634 9.64525 9.96248C9.63469 9.96155 9.62407 9.96335 9.61453 9.96767L9.15955 10.1689C9.12081 10.1866 8.95013 10.2435 8.8496 10.2774L8.79358 10.2961C8.35117 9.93773 7.45693 9.143 7.07316 8.74637C7.08206 8.72035 7.09254 8.69139 7.10353 8.65948C7.13861 8.56131 7.19672 8.39637 7.214 8.36054L7.43128 7.93544C7.43589 7.92649 7.43781 7.91653 7.43682 7.90663C7.43583 7.89673 7.43197 7.88728 7.42566 7.87929C7.41935 7.8713 7.41083 7.86509 7.40103 7.86131C7.39122 7.85754 7.3805 7.85635 7.37002 7.85788L6.29725 8.01202C6.27308 8.01549 6.24836 8.01265 6.2258 8.00381C6.20324 7.99496 6.18372 7.98046 6.16938 7.96189C6.15504 7.94332 6.14644 7.92141 6.14452 7.89856C6.1426 7.8757 6.14744 7.8528 6.1585 7.83235L6.77212 6.69204C6.79161 6.65555 6.82149 6.62482 6.85845 6.60325C6.89541 6.58168 6.93801 6.57011 6.98154 6.56982L8.71662 6.54429L8.80353 6.47802C9.77852 5.73804 10.9825 5.31342 12.236 5.26752C12.2637 5.26691 12.2912 5.27158 12.3169 5.28123C12.3426 5.29089 12.3659 5.30533 12.3855 5.32368C12.4051 5.34204 12.4205 5.36392 12.4308 5.38802C12.4411 5.41211 12.4461 5.43792 12.4454 5.46387C12.3968 6.63433 11.9474 7.75899 11.1637 8.67126L11.0967 8.7552L11.0695 10.4021C11.0687 10.4426 11.0562 10.4821 11.0334 10.5164C11.0105 10.5507 10.9781 10.5786 10.9397 10.597Z" fill="url(#paint8_linear_15153_6487)"/>
<path d="M11.1841 6.4646C11.067 6.3547 10.9177 6.27985 10.7552 6.2495C10.5927 6.21916 10.4243 6.23468 10.2712 6.29411C10.1181 6.35354 9.98719 6.45421 9.89512 6.58338C9.80305 6.71255 9.75391 6.86442 9.75391 7.01978C9.75391 7.17514 9.80305 7.32701 9.89512 7.45618C9.98719 7.58535 10.1181 7.68602 10.2712 7.74545C10.4243 7.80488 10.5927 7.8204 10.7552 7.79006C10.9177 7.75971 11.067 7.68486 11.1841 7.57496C11.3411 7.42769 11.4293 7.22799 11.4293 7.01978C11.4293 6.81157 11.3411 6.61187 11.1841 6.4646ZM10.2543 7.3364C10.1875 7.27378 10.1421 7.19401 10.1237 7.10717C10.1053 7.02034 10.1147 6.93033 10.1509 6.84854C10.187 6.76675 10.2482 6.69684 10.3267 6.64765C10.4053 6.59847 10.4976 6.57222 10.592 6.57222C10.6864 6.57222 10.7787 6.59847 10.8572 6.64765C10.9358 6.69684 10.997 6.76675 11.0331 6.84854C11.0693 6.93033 11.0787 7.02034 11.0603 7.10717C11.0419 7.19401 10.9964 7.27378 10.9297 7.3364C10.8401 7.42027 10.7186 7.46737 10.592 7.46737C10.4654 7.46737 10.3439 7.42027 10.2543 7.3364Z" fill="url(#paint9_linear_15153_6487)"/>
<g style="mix-blend-mode:multiply" opacity="0.4">
<path d="M11.7166 10.4114L11.7407 8.97217C12.6654 7.85618 13.1452 6.47236 13.0972 5.05988C13.0935 4.95477 13.0472 4.85494 12.9679 4.78057C12.8886 4.70621 12.7821 4.66287 12.67 4.65932C11.1583 4.61421 9.67746 5.06739 8.48521 5.94002L6.97212 5.96211C6.81058 5.96423 6.65276 6.00787 6.51585 6.08828C6.37894 6.16869 6.2682 6.28279 6.19568 6.41813L5.35798 7.97814C5.31534 8.05844 5.29699 8.14815 5.3049 8.23753C5.31282 8.32692 5.3467 8.41256 5.40287 8.48517C5.45905 8.55777 5.53537 8.61455 5.62354 8.64935C5.71171 8.68415 5.80836 8.69563 5.90301 8.68255L6.44437 8.60499C6.42919 8.64623 6.41662 8.6801 6.41086 8.69335L6.33233 8.86074L6.45327 9.00212C6.51034 9.06838 6.59411 9.15625 6.6962 9.25737C6.36148 9.31336 6.05337 9.46491 5.814 9.69131C5.52343 9.96424 5.36688 10.4767 5.20091 11.0167C5.11976 11.2822 5.03599 11.5566 4.93913 11.7864C4.90346 11.8639 4.89343 11.9497 4.91036 12.0326C4.92728 12.1156 4.97038 12.1919 5.03407 12.2516C5.09776 12.3113 5.1791 12.3517 5.26756 12.3676C5.35603 12.3834 5.44753 12.374 5.53023 12.3406C5.77474 12.2498 6.06793 12.1712 6.35118 12.0951C6.92709 11.9395 7.47526 11.7928 7.76479 11.5203C8.01959 11.2845 8.18508 10.9769 8.23599 10.6446C8.3517 10.7428 8.45117 10.8213 8.52552 10.8773L8.67631 10.9912L8.85432 10.9205L8.89568 10.9052L8.81243 11.4143C8.79737 11.5036 8.80893 11.5951 8.84582 11.6787C8.88271 11.7622 8.9435 11.8346 9.02149 11.8878C9.09948 11.941 9.19163 11.973 9.28778 11.9802C9.38392 11.9875 9.48033 11.9696 9.56636 11.9287L11.2308 11.1409C11.3753 11.0727 11.4971 10.9687 11.5828 10.84C11.6684 10.7114 11.7148 10.5631 11.7166 10.4114ZM7.38625 11.1639C7.19411 11.3441 6.69044 11.4791 6.20405 11.6101C5.97002 11.673 5.73285 11.7378 5.50667 11.8109C5.58521 11.6018 5.65432 11.3765 5.72133 11.1576C5.8606 10.701 6.0051 10.2293 6.19725 10.0492C6.51138 9.75463 6.94489 9.66824 7.27473 9.80372C7.39358 9.9122 7.5161 10.0217 7.63704 10.1287C7.7983 10.4394 7.70667 10.863 7.38625 11.1639ZM10.9397 10.597L9.72238 11.1728C9.70081 11.1828 9.67672 11.1872 9.65271 11.1854C9.62869 11.1837 9.60563 11.1758 9.58601 11.1627C9.56639 11.1496 9.55093 11.1317 9.54129 11.111C9.53165 11.0903 9.52819 11.0676 9.53128 11.0451L9.69725 10.0251C9.69888 10.0153 9.69761 10.0052 9.69359 9.99604C9.68956 9.98684 9.68293 9.97885 9.67441 9.97294C9.66589 9.96702 9.65581 9.9634 9.64525 9.96248C9.63469 9.96155 9.62407 9.96335 9.61453 9.96767L9.15955 10.1689C9.12081 10.1866 8.95013 10.2435 8.8496 10.2774L8.79358 10.2961C8.35117 9.93773 7.45693 9.143 7.07316 8.74637C7.08206 8.72035 7.09254 8.69139 7.10353 8.65948C7.13861 8.56131 7.19672 8.39637 7.214 8.36054L7.43128 7.93544C7.43589 7.92649 7.43781 7.91653 7.43682 7.90663C7.43583 7.89673 7.43197 7.88728 7.42566 7.87929C7.41935 7.8713 7.41083 7.86509 7.40103 7.86131C7.39122 7.85754 7.3805 7.85635 7.37002 7.85788L6.29725 8.01202C6.27308 8.01549 6.24836 8.01265 6.2258 8.00381C6.20324 7.99496 6.18372 7.98046 6.16938 7.96189C6.15504 7.94332 6.14644 7.92141 6.14452 7.89856C6.1426 7.8757 6.14744 7.8528 6.1585 7.83235L6.77212 6.69204C6.79161 6.65555 6.82149 6.62482 6.85845 6.60325C6.89541 6.58168 6.93801 6.57011 6.98154 6.56982L8.71662 6.54429L8.80353 6.47802C9.77852 5.73804 10.9825 5.31342 12.236 5.26752C12.2637 5.26691 12.2912 5.27158 12.3169 5.28123C12.3426 5.29089 12.3659 5.30533 12.3855 5.32368C12.4051 5.34204 12.4205 5.36392 12.4308 5.38802C12.4411 5.41211 12.4461 5.43792 12.4454 5.46387C12.3968 6.63433 11.9474 7.75899 11.1637 8.67126L11.0967 8.7552L11.0695 10.4021C11.0687 10.4426 11.0562 10.4821 11.0334 10.5164C11.0105 10.5507 10.9781 10.5786 10.9397 10.597Z" fill="#6B3005"/>
<path d="M11.1802 6.4646C11.0631 6.3547 10.9138 6.27985 10.7513 6.2495C10.5888 6.21916 10.4204 6.23468 10.2673 6.29411C10.1141 6.35354 9.98329 6.45421 9.89122 6.58338C9.79914 6.71255 9.75 6.86442 9.75 7.01978C9.75 7.17514 9.79914 7.32701 9.89122 7.45618C9.98329 7.58535 10.1141 7.68602 10.2673 7.74545C10.4204 7.80488 10.5888 7.8204 10.7513 7.79006C10.9138 7.75971 11.0631 7.68486 11.1802 7.57496C11.3372 7.42769 11.4254 7.22799 11.4254 7.01978C11.4254 6.81157 11.3372 6.61187 11.1802 6.4646ZM10.2504 7.3364C10.1836 7.27378 10.1382 7.19401 10.1198 7.10717C10.1013 7.02034 10.1108 6.93033 10.147 6.84854C10.1831 6.76675 10.2443 6.69684 10.3228 6.64765C10.4013 6.59847 10.4937 6.57222 10.5881 6.57222C10.6825 6.57222 10.7748 6.59847 10.8533 6.64765C10.9319 6.69684 10.9931 6.76675 11.0292 6.84854C11.0654 6.93033 11.0748 7.02034 11.0564 7.10717C11.038 7.19401 10.9925 7.27378 10.9258 7.3364C10.8362 7.42027 10.7147 7.46737 10.5881 7.46737C10.4615 7.46737 10.34 7.42027 10.2504 7.3364Z" fill="#6B3005"/>
</g>
<path style="mix-blend-mode:soft-light" opacity="0.45" d="M14.121 1.50075C13.7545 7.71036 8.26814 12.6402 1.55558 12.6402C1.43306 12.6402 1.31107 12.6402 1.18908 12.6348C0.175061 10.9737 -0.206631 9.03876 0.106637 7.14747C0.419905 5.25618 1.40953 3.52089 2.91312 2.22633C4.41672 0.931767 6.34498 0.154825 8.38153 0.0229846C10.4181 -0.108856 12.4419 0.412234 14.121 1.50075Z" fill="url(#paint10_linear_15153_6487)"/>
<path style="mix-blend-mode:soft-light" opacity="0.67" d="M11.4821 0.830196C11.4821 6.4964 6.5826 11.0895 0.53967 11.0895H0.453806C-0.0589931 9.63295 -0.138882 8.0729 0.222719 6.57695C0.584321 5.081 1.37375 3.70567 2.50622 2.59867C3.63869 1.49168 5.07141 0.694844 6.65051 0.293756C8.2296 -0.107333 9.8954 -0.0975207 11.469 0.322137C11.4781 0.490672 11.4824 0.660025 11.4821 0.830196Z" fill="url(#paint11_linear_15153_6487)"/>
<path d="M16.4426 8.41289C16.4423 7.18262 16.0951 5.97429 15.4362 4.91036C14.7773 3.84642 13.8302 2.96468 12.6907 2.35449C11.5513 1.7443 10.2601 1.42733 8.94796 1.43571C7.63581 1.44409 6.34933 1.77752 5.21888 2.40221C4.08844 3.02689 3.1542 3.92065 2.51084 4.9929C1.86747 6.06515 1.53784 7.2778 1.55535 8.50796C1.57286 9.73813 1.93688 10.9421 2.61053 11.9979C3.28418 13.0537 4.24352 13.9237 5.39134 14.5199C6.49497 15.0921 7.73545 15.3922 8.99657 15.3922C10.2577 15.3922 11.4982 15.0921 12.6018 14.5199C13.7657 13.9167 14.7358 13.032 15.4113 11.9579C16.0868 10.8839 16.4429 9.65975 16.4426 8.41289ZM12.1845 13.5539L11.9934 13.115C11.9201 12.9461 11.7442 12.8838 11.5505 12.8357C11.4128 12.8013 10.9966 12.7115 10.9966 12.7115C9.68791 12.4191 8.32367 12.4242 7.01751 12.7262C7.01751 12.7262 6.66411 12.8077 6.54631 12.8357C6.36411 12.8789 6.19238 12.9339 6.11333 13.0924L5.86673 13.5833C4.87371 13.0546 4.05144 12.2842 3.4868 11.3536C2.92216 10.4229 2.63611 9.36654 2.65888 8.29606C2.7238 5.16181 5.40966 2.59206 8.74945 2.47229C10.1641 2.42015 11.5567 2.81337 12.7054 3.58931C13.8541 4.36525 14.6928 5.47927 15.0879 6.75392C15.483 8.02857 15.4118 9.39053 14.8857 10.6228C14.3595 11.8552 13.4086 12.887 12.1845 13.5539Z" fill="url(#paint12_linear_15153_6487)"/>
<path d="M16.4426 8.43828C16.4423 7.20801 16.0951 5.99968 15.4362 4.93575C14.7773 3.87181 13.8302 2.99007 12.6907 2.37988C11.5513 1.76969 10.2601 1.45272 8.94796 1.4611C7.63581 1.46948 6.34933 1.80291 5.21888 2.4276C4.08844 3.05229 3.1542 3.94604 2.51084 5.01829C1.86747 6.09054 1.53784 7.30319 1.55535 8.53335C1.57286 9.76352 1.93688 10.9675 2.61053 12.0233C3.28418 13.079 4.24352 13.9491 5.39134 14.5453C6.49497 15.1175 7.73545 15.4176 8.99657 15.4176C10.2577 15.4176 11.4982 15.1175 12.6018 14.5453C13.7656 13.942 14.7357 13.0573 15.4112 11.9832C16.0866 10.9092 16.4428 9.68512 16.4426 8.43828ZM12.1845 13.5792L11.9934 13.1404C11.9201 12.9715 11.7458 12.9097 11.5505 12.8611C11.4128 12.8267 10.9966 12.7369 10.9966 12.7369C9.6879 12.4444 8.3236 12.4496 7.01751 12.7521C7.01751 12.7521 6.66359 12.8331 6.54631 12.8611C6.36202 12.9053 6.19238 12.9593 6.11333 13.1183L5.86673 13.6092C4.87343 13.0804 4.05098 12.3098 3.48632 11.3788C2.92166 10.4479 2.63577 9.3912 2.65888 8.32047C2.7238 5.1872 5.40966 2.61745 8.74945 2.49768C10.1641 2.44554 11.5567 2.83876 12.7054 3.6147C13.8541 4.39064 14.6928 5.50466 15.0879 6.77931C15.483 8.05396 15.4118 9.41592 14.8857 10.6482C14.3595 11.8806 13.4086 12.9123 12.1845 13.5792Z" fill="url(#paint13_linear_15153_6487)"/>
<path d="M6.78751 13.7049L7.14824 13.969L7.50897 13.7049V14.0868H7.71002V13.4541H7.50897L7.14824 13.7177L6.78751 13.4541H6.58594V14.0868H6.78751V13.7049Z" fill="url(#paint14_linear_15153_6487)"/>
<path d="M8.72551 13.4629H7.95692L7.77734 14.0888H7.99357L8.01975 13.9906H8.66059L8.68677 14.0888H8.903L8.72551 13.4742V13.4629ZM8.06635 13.8217L8.1187 13.6318H8.56268L8.61504 13.8217H8.06635Z" fill="url(#paint15_linear_15153_6487)"/>
<path d="M9.99054 13.6985C9.99183 13.6512 9.97692 13.6048 9.94799 13.566C9.91907 13.5272 9.87765 13.4981 9.82981 13.483C9.78838 13.4681 9.74434 13.4606 9.69996 13.4609H8.95703V14.0883H9.17326V13.9474H9.62195L9.71201 14.0883H9.95808L9.85022 13.918C9.8952 13.8998 9.93294 13.8688 9.95812 13.8295C9.9833 13.7901 9.99464 13.7443 9.99054 13.6985ZM9.69996 13.7741H9.17326V13.6328H9.69996C9.72405 13.6328 9.78687 13.6396 9.78321 13.7034C9.77954 13.7673 9.69996 13.7741 9.69996 13.7741Z" fill="url(#paint16_linear_15153_6487)"/>
<path d="M10.858 13.7076L10.3255 13.7052C10.3255 13.7052 10.2889 13.7052 10.2889 13.6752C10.2889 13.6453 10.3313 13.633 10.3716 13.633H10.7936C10.7936 13.633 10.8627 13.6286 10.8753 13.6821H11.0878C11.0868 13.6519 11.0794 13.6223 11.0661 13.5948C11.0527 13.5674 11.0337 13.5427 11.01 13.5222C10.9864 13.5018 10.9586 13.4859 10.9284 13.4756C10.8982 13.4653 10.866 13.4607 10.8339 13.4622H10.3402C10.3043 13.462 10.2688 13.4683 10.2355 13.4808C10.1897 13.4946 10.1495 13.5213 10.1206 13.5574C10.0917 13.5934 10.0755 13.637 10.0742 13.6821C10.0742 13.8667 10.292 13.8642 10.292 13.8642H10.8459C10.8563 13.8648 10.866 13.8691 10.8731 13.8763C10.8802 13.8834 10.8842 13.8928 10.8842 13.9025C10.8842 13.9383 10.8245 13.9383 10.7857 13.9408C10.747 13.9432 10.3669 13.9408 10.3669 13.9408C10.3669 13.9408 10.2952 13.9364 10.2758 13.8917C10.2302 13.8892 10.0747 13.8868 10.0747 13.8868V13.9045C10.0742 13.9466 10.0872 13.988 10.1119 14.0233C10.131 14.0503 10.1573 14.0722 10.1881 14.0869C10.2189 14.1016 10.2533 14.1086 10.2878 14.1072H10.8533C10.8533 14.1072 11.1004 14.0939 11.1004 13.8981C11.1004 13.7022 10.858 13.7076 10.858 13.7076Z" fill="url(#paint17_linear_15153_6487)"/>
<path d="M11.3144 13.1436C11.2716 13.1435 11.2298 13.1553 11.1941 13.1775C11.1585 13.1997 11.1307 13.2313 11.1143 13.2684C11.0978 13.3054 11.0935 13.3462 11.1017 13.3855C11.11 13.4249 11.1306 13.4611 11.1608 13.4895C11.191 13.5179 11.2296 13.5372 11.2715 13.5451C11.3135 13.553 11.357 13.549 11.3965 13.5336C11.4361 13.5183 11.4699 13.4923 11.4936 13.459C11.5174 13.4256 11.5301 13.3864 11.5301 13.3463C11.5302 13.3197 11.5247 13.2933 11.5138 13.2687C11.503 13.2441 11.4872 13.2218 11.4671 13.203C11.4471 13.1841 11.4233 13.1692 11.3971 13.159C11.3709 13.1488 11.3428 13.1436 11.3144 13.1436ZM11.3144 13.467C11.2888 13.4671 11.2637 13.4601 11.2424 13.4468C11.221 13.4335 11.2044 13.4146 11.1945 13.3924C11.1847 13.3702 11.1821 13.3458 11.187 13.3223C11.192 13.2987 11.2043 13.2771 11.2224 13.2601C11.2406 13.2431 11.2637 13.2315 11.2888 13.2269C11.3139 13.2222 11.34 13.2246 11.3636 13.2339C11.3873 13.2431 11.4075 13.2587 11.4216 13.2787C11.4358 13.2988 11.4433 13.3223 11.4432 13.3463C11.4432 13.3783 11.4296 13.409 11.4055 13.4317C11.3813 13.4543 11.3486 13.467 11.3144 13.467Z" fill="url(#paint18_linear_15153_6487)"/>
<path d="M6.78751 13.661L7.14824 13.9251L7.50897 13.661V14.0429H7.71002V13.4102H7.50897L7.14824 13.6738L6.78751 13.4102H6.58594V14.0429H6.78751V13.661Z" fill="url(#paint19_linear_15153_6487)"/>
<path d="M8.72603 13.4189H7.95745L7.77734 14.0429H7.99357L8.01975 13.9447H8.66059L8.68677 14.0429H8.903L8.72551 13.4288L8.72603 13.4189ZM8.06687 13.7778L8.11923 13.5878H8.56321L8.61556 13.7778H8.06687Z" fill="url(#paint20_linear_15153_6487)"/>
<path d="M9.99054 13.6546C9.99197 13.6073 9.97711 13.5609 9.94815 13.5221C9.9192 13.4834 9.8777 13.4544 9.82981 13.4396C9.78841 13.4245 9.74437 13.4168 9.69996 13.417H8.95703V14.0438H9.17326V13.9025H9.62195L9.712 14.0438H9.95808L9.85022 13.874C9.8951 13.8557 9.93276 13.8247 9.95792 13.7854C9.98308 13.746 9.99448 13.7003 9.99054 13.6546ZM9.69996 13.7302H9.17326V13.5888H9.69996C9.72405 13.5888 9.78687 13.5957 9.78321 13.66C9.77954 13.7243 9.69996 13.7302 9.69996 13.7302Z" fill="url(#paint21_linear_15153_6487)"/>
<path d="M10.858 13.6641L10.3255 13.6617C10.3255 13.6617 10.2889 13.6617 10.2889 13.6317C10.2889 13.6018 10.3313 13.5895 10.3716 13.5895H10.7936C10.7936 13.5895 10.8627 13.5851 10.8753 13.6415H11.0878C11.0868 13.6114 11.0794 13.5817 11.0661 13.5542C11.0527 13.5267 11.0337 13.502 11.0101 13.4815C10.9864 13.461 10.9587 13.4451 10.9284 13.4348C10.8982 13.4244 10.8661 13.4198 10.8339 13.4211H10.3402C10.3044 13.4212 10.2688 13.4275 10.2355 13.4398C10.1896 13.4536 10.1495 13.4804 10.1206 13.5166C10.0917 13.5527 10.0755 13.5964 10.0742 13.6415C10.0742 13.8256 10.292 13.8232 10.292 13.8232H10.8459C10.8563 13.8238 10.866 13.8281 10.8731 13.8352C10.8802 13.8423 10.8842 13.8517 10.8842 13.8615C10.8842 13.8973 10.8245 13.8973 10.7857 13.8997C10.747 13.9022 10.3669 13.8997 10.3669 13.8997C10.3669 13.8997 10.2952 13.8953 10.2758 13.8507C10.2302 13.8507 10.0747 13.8462 10.0747 13.8462V13.8634C10.0743 13.9057 10.0872 13.9472 10.1119 13.9827C10.1312 14.0096 10.1574 14.0314 10.1882 14.046C10.2191 14.0606 10.2533 14.0675 10.2878 14.0662H10.8533C10.8533 14.0662 11.1004 14.0529 11.1004 13.8575C11.1004 13.6622 10.858 13.6641 10.858 13.6641Z" fill="url(#paint22_linear_15153_6487)"/>
<path d="M11.3134 13.1006C11.2707 13.1006 11.229 13.1124 11.1935 13.1347C11.1581 13.1569 11.1304 13.1885 11.1141 13.2254C11.0977 13.2624 11.0935 13.3031 11.1018 13.3423C11.1101 13.3815 11.1307 13.4176 11.1608 13.4458C11.191 13.4741 11.2294 13.4934 11.2713 13.5012C11.3131 13.509 11.3565 13.505 11.3959 13.4897C11.4353 13.4744 11.469 13.4484 11.4927 13.4152C11.5164 13.3819 11.5291 13.3428 11.5291 13.3028C11.5291 13.2763 11.5236 13.2499 11.5128 13.2254C11.502 13.2008 11.4861 13.1785 11.466 13.1597C11.446 13.1409 11.4222 13.126 11.396 13.1159C11.3698 13.1057 11.3417 13.1005 11.3134 13.1006ZM11.3134 13.4236C11.2879 13.4236 11.263 13.4165 11.2418 13.4032C11.2206 13.39 11.2041 13.3711 11.1944 13.349C11.1846 13.327 11.1821 13.3027 11.187 13.2793C11.192 13.2558 11.2043 13.2343 11.2223 13.2174C11.2403 13.2006 11.2633 13.1891 11.2882 13.1844C11.3132 13.1797 11.3391 13.1821 11.3627 13.1913C11.3862 13.2004 11.4063 13.2159 11.4205 13.2357C11.4346 13.2556 11.4422 13.2789 11.4422 13.3028C11.4422 13.3349 11.4286 13.3656 11.4044 13.3882C11.3803 13.4109 11.3475 13.4236 11.3134 13.4236Z" fill="url(#paint23_linear_15153_6487)"/>
<path d="M6.78751 13.6839L7.14824 13.948L7.50897 13.6839V14.0658H7.71002V13.4336H7.50897L7.14824 13.6967L6.78751 13.4336H6.58594V14.0658H6.78751V13.6839Z" fill="url(#paint24_linear_15153_6487)"/>
<path d="M8.72603 13.4424H7.95745L7.77734 14.0663H7.99357L8.01975 13.9681H8.66059L8.68677 14.0663H8.903L8.72603 13.4507V13.4424ZM8.06687 13.8012L8.11923 13.6117H8.56321L8.61556 13.8012H8.06687Z" fill="url(#paint25_linear_15153_6487)"/>
<path d="M9.99054 13.6785C9.99197 13.6312 9.97711 13.5848 9.94815 13.546C9.9192 13.5073 9.8777 13.4784 9.82981 13.4635C9.78838 13.4486 9.74434 13.4411 9.69996 13.4414H8.95703V14.0678H9.17326V13.9264H9.62195L9.712 14.0678H9.95808L9.85022 13.8974C9.89501 13.8792 9.9326 13.8483 9.95776 13.809C9.98291 13.7698 9.99437 13.7242 9.99054 13.6785ZM9.69996 13.7546H9.17326V13.6127H9.69996C9.72405 13.6127 9.78687 13.6196 9.78321 13.6839C9.77954 13.7482 9.69996 13.7546 9.69996 13.7546Z" fill="url(#paint26_linear_15153_6487)"/>
<path d="M10.858 13.6866H10.3255C10.3255 13.6866 10.2889 13.6866 10.2889 13.6561C10.2889 13.6257 10.3313 13.6139 10.3716 13.6139H10.7936C10.7936 13.6139 10.8627 13.6095 10.8753 13.666H11.0878C11.0868 13.6358 11.0794 13.6061 11.0661 13.5786C11.0527 13.5512 11.0337 13.5264 11.0101 13.5059C10.9864 13.4854 10.9587 13.4695 10.9284 13.4592C10.8982 13.4488 10.8661 13.4442 10.8339 13.4456H10.3402C10.3043 13.4455 10.2687 13.452 10.2355 13.4647C10.1896 13.4784 10.1494 13.5051 10.1205 13.5412C10.0916 13.5772 10.0754 13.6209 10.0742 13.666C10.0742 13.85 10.292 13.8481 10.292 13.8481H10.8459C10.8563 13.8485 10.8661 13.8526 10.8733 13.8597C10.8804 13.8667 10.8843 13.8761 10.8842 13.8859C10.8842 13.9222 10.8245 13.9222 10.7857 13.9242C10.747 13.9261 10.3669 13.9242 10.3669 13.9242C10.3669 13.9242 10.2952 13.9197 10.2758 13.8751C10.2302 13.8751 10.0747 13.8707 10.0747 13.8707V13.8883C10.0742 13.9305 10.0872 13.9719 10.1119 14.0071C10.1311 14.0341 10.1574 14.056 10.1882 14.0707C10.219 14.0854 10.2533 14.0924 10.2878 14.0911H10.8533C10.8533 14.0911 11.1004 14.0773 11.1004 13.8819C11.1004 13.6866 10.858 13.6866 10.858 13.6866Z" fill="url(#paint27_linear_15153_6487)"/>
<path d="M11.3134 13.123C11.2707 13.123 11.229 13.1349 11.1935 13.1571C11.1581 13.1794 11.1304 13.2109 11.1141 13.2479C11.0977 13.2848 11.0935 13.3255 11.1018 13.3647C11.1101 13.404 11.1307 13.44 11.1608 13.4683C11.191 13.4966 11.2294 13.5158 11.2713 13.5236C11.3131 13.5314 11.3565 13.5274 11.3959 13.5121C11.4353 13.4968 11.469 13.4709 11.4927 13.4376C11.5164 13.4044 11.5291 13.3653 11.5291 13.3253C11.5291 13.2717 11.5063 13.2202 11.4659 13.1823C11.4254 13.1444 11.3706 13.123 11.3134 13.123ZM11.3134 13.446C11.2879 13.446 11.263 13.439 11.2418 13.4257C11.2206 13.4124 11.2041 13.3936 11.1944 13.3715C11.1846 13.3494 11.1821 13.3252 11.187 13.3017C11.192 13.2783 11.2043 13.2568 11.2223 13.2399C11.2403 13.223 11.2633 13.2115 11.2882 13.2069C11.3132 13.2022 11.3391 13.2046 11.3627 13.2137C11.3862 13.2229 11.4063 13.2383 11.4205 13.2582C11.4346 13.2781 11.4422 13.3014 11.4422 13.3253C11.4422 13.3573 11.4286 13.388 11.4044 13.4107C11.3803 13.4333 11.3475 13.446 11.3134 13.446Z" fill="url(#paint28_linear_15153_6487)"/>
</g>
<defs>
<linearGradient id="paint0_linear_15153_6487" x1="0" y1="9.56221" x2="18" y2="9.56221" gradientUnits="userSpaceOnUse">
<stop offset="0.02" stop-color="#EA4E0E"/>
<stop offset="0.55" stop-color="#FF7F18"/>
<stop offset="1" stop-color="#F75610"/>
</linearGradient>
<linearGradient id="paint1_linear_15153_6487" x1="2.63613" y1="2.71766" x2="14.5446" y2="15.419" gradientUnits="userSpaceOnUse">
<stop stop-color="#FFD22B"/>
<stop offset="1" stop-color="#FFF4B8"/>
</linearGradient>
<linearGradient id="paint2_linear_15153_6487" x1="2.63489" y1="2.47157" x2="14.5434" y2="15.1729" gradientUnits="userSpaceOnUse">
<stop stop-color="#FFEB61"/>
<stop offset="1" stop-color="#FFD22B"/>
</linearGradient>
<linearGradient id="paint3_linear_15153_6487" x1="9.00028" y1="15.4739" x2="9.00028" y2="1.40185" gradientUnits="userSpaceOnUse">
<stop stop-color="#E7AB1A"/>
<stop offset="1" stop-color="#EDDB5A"/>
</linearGradient>
<linearGradient id="paint4_linear_15153_6487" x1="8.99709" y1="14.3832" x2="8.99709" y2="2.49316" gradientUnits="userSpaceOnUse">
<stop stop-color="#EABA21"/>
<stop offset="1" stop-color="#FFF4B8"/>
</linearGradient>
<linearGradient id="paint5_linear_15153_6487" x1="8.99709" y1="14.2869" x2="8.99709" y2="2.87207" gradientUnits="userSpaceOnUse">
<stop stop-color="#FFD22B"/>
<stop offset="1" stop-color="#FFEB61"/>
</linearGradient>
<linearGradient id="paint6_linear_15153_6487" x1="4.95874" y1="8.59672" x2="13.1535" y2="8.59672" gradientUnits="userSpaceOnUse">
<stop stop-color="#FFD22B"/>
<stop offset="1" stop-color="#FFF4B8"/>
</linearGradient>
<linearGradient id="paint7_linear_15153_6487" x1="9.80612" y1="7.10083" x2="11.4799" y2="7.10083" gradientUnits="userSpaceOnUse">
<stop stop-color="#FFD22B"/>
<stop offset="1" stop-color="#FFF4B8"/>
</linearGradient>
<linearGradient id="paint8_linear_15153_6487" x1="6.44798" y1="6.12263" x2="11.218" y2="11.2103" gradientUnits="userSpaceOnUse">
<stop offset="0.02" stop-color="#FE6314"/>
<stop offset="1" stop-color="#FE911D"/>
</linearGradient>
<linearGradient id="paint9_linear_15153_6487" x1="9.99981" y1="6.46485" x2="11.1079" y2="7.6467" gradientUnits="userSpaceOnUse">
<stop offset="0.02" stop-color="#FE6314"/>
<stop offset="1" stop-color="#FE911D"/>
</linearGradient>
<linearGradient id="paint10_linear_15153_6487" x1="2.69222" y1="2.41575" x2="9.70016" y2="9.89027" gradientUnits="userSpaceOnUse">
<stop stop-color="#FFD22B"/>
<stop offset="1" stop-color="#FFEB61"/>
</linearGradient>
<linearGradient id="paint11_linear_15153_6487" x1="2.5737" y1="2.53011" x2="8.0136" y2="8.33219" gradientUnits="userSpaceOnUse">
<stop stop-color="white" stop-opacity="0"/>
<stop offset="1" stop-color="white"/>
</linearGradient>
<linearGradient id="paint12_linear_15153_6487" x1="8.99867" y1="15.3922" x2="8.99867" y2="1.4331" gradientUnits="userSpaceOnUse">
<stop stop-color="#E7AB1A"/>
<stop offset="1" stop-color="#EDDB5A"/>
</linearGradient>
<linearGradient id="paint13_linear_15153_6487" x1="8.99866" y1="15.4176" x2="8.99866" y2="-10.3771" gradientUnits="userSpaceOnUse">
<stop stop-color="#FFEB61"/>
<stop offset="1" stop-color="#F9B81C"/>
</linearGradient>
<linearGradient id="paint14_linear_15153_6487" x1="7.14824" y1="14.0868" x2="7.14824" y2="13.4541" gradientUnits="userSpaceOnUse">
<stop stop-color="#E7AB1A"/>
<stop offset="1" stop-color="#EDDB5A"/>
</linearGradient>
<linearGradient id="paint15_linear_15153_6487" x1="8.34017" y1="14.0411" x2="8.34017" y2="13.4172" gradientUnits="userSpaceOnUse">
<stop stop-color="#E7AB1A"/>
<stop offset="1" stop-color="#EDDB5A"/>
</linearGradient>
<linearGradient id="paint16_linear_15153_6487" x1="9.47378" y1="14.0873" x2="9.47378" y2="13.4609" gradientUnits="userSpaceOnUse">
<stop stop-color="#E7AB1A"/>
<stop offset="1" stop-color="#EDDB5A"/>
</linearGradient>
<linearGradient id="paint17_linear_15153_6487" x1="10.5868" y1="14.1096" x2="10.5868" y2="13.4627" gradientUnits="userSpaceOnUse">
<stop stop-color="#E7AB1A"/>
<stop offset="1" stop-color="#EDDB5A"/>
</linearGradient>
<linearGradient id="paint18_linear_15153_6487" x1="11.3144" y1="13.5485" x2="11.3144" y2="13.1436" gradientUnits="userSpaceOnUse">
<stop stop-color="#E7AB1A"/>
<stop offset="1" stop-color="#EDDB5A"/>
</linearGradient>
<linearGradient id="paint19_linear_15153_6487" x1="7.14824" y1="14.0429" x2="7.14824" y2="13.4102" gradientUnits="userSpaceOnUse">
<stop stop-color="#FFD22B"/>
<stop offset="0.04" stop-color="#FFD842"/>
<stop offset="0.09" stop-color="#FFDF61"/>
<stop offset="0.16" stop-color="#FFE67D"/>
<stop offset="0.23" stop-color="#FFEB93"/>
<stop offset="0.32" stop-color="#FFEFA4"/>
<stop offset="0.43" stop-color="#FFF2AF"/>
<stop offset="0.58" stop-color="#FFF4B6"/>
<stop offset="1" stop-color="#FFF4B8"/>
</linearGradient>
<linearGradient id="paint20_linear_15153_6487" x1="8.34069" y1="13.9972" x2="8.34069" y2="13.3733" gradientUnits="userSpaceOnUse">
<stop stop-color="#FFD22B"/>
<stop offset="0.04" stop-color="#FFD842"/>
<stop offset="0.09" stop-color="#FFDF61"/>
<stop offset="0.16" stop-color="#FFE67D"/>
<stop offset="0.23" stop-color="#FFEB93"/>
<stop offset="0.32" stop-color="#FFEFA4"/>
<stop offset="0.43" stop-color="#FFF2AF"/>
<stop offset="0.58" stop-color="#FFF4B6"/>
<stop offset="1" stop-color="#FFF4B8"/>
</linearGradient>
<linearGradient id="paint21_linear_15153_6487" x1="9.47378" y1="14.0438" x2="9.47378" y2="13.417" gradientUnits="userSpaceOnUse">
<stop stop-color="#FFD22B"/>
<stop offset="0.04" stop-color="#FFD842"/>
<stop offset="0.09" stop-color="#FFDF61"/>
<stop offset="0.16" stop-color="#FFE67D"/>
<stop offset="0.23" stop-color="#FFEB93"/>
<stop offset="0.32" stop-color="#FFEFA4"/>
<stop offset="0.43" stop-color="#FFF2AF"/>
<stop offset="0.58" stop-color="#FFF4B6"/>
<stop offset="1" stop-color="#FFF4B8"/>
</linearGradient>
<linearGradient id="paint22_linear_15153_6487" x1="10.5868" y1="14.0662" x2="10.5868" y2="13.4192" gradientUnits="userSpaceOnUse">
<stop stop-color="#FFD22B"/>
<stop offset="0.04" stop-color="#FFD842"/>
<stop offset="0.09" stop-color="#FFDF61"/>
<stop offset="0.16" stop-color="#FFE67D"/>
<stop offset="0.23" stop-color="#FFEB93"/>
<stop offset="0.32" stop-color="#FFEFA4"/>
<stop offset="0.43" stop-color="#FFF2AF"/>
<stop offset="0.58" stop-color="#FFF4B6"/>
<stop offset="1" stop-color="#FFF4B8"/>
</linearGradient>
<linearGradient id="paint23_linear_15153_6487" x1="11.3134" y1="13.5051" x2="11.3134" y2="13.1006" gradientUnits="userSpaceOnUse">
<stop stop-color="#FFD22B"/>
<stop offset="0.04" stop-color="#FFD842"/>
<stop offset="0.09" stop-color="#FFDF61"/>
<stop offset="0.16" stop-color="#FFE67D"/>
<stop offset="0.23" stop-color="#FFEB93"/>
<stop offset="0.32" stop-color="#FFEFA4"/>
<stop offset="0.43" stop-color="#FFF2AF"/>
<stop offset="0.58" stop-color="#FFF4B6"/>
<stop offset="1" stop-color="#FFF4B8"/>
</linearGradient>
<linearGradient id="paint24_linear_15153_6487" x1="6.58594" y1="13.7497" x2="7.71002" y2="13.7497" gradientUnits="userSpaceOnUse">
<stop offset="0.02" stop-color="#FE6314"/>
<stop offset="1" stop-color="#FE911D"/>
</linearGradient>
<linearGradient id="paint25_linear_15153_6487" x1="7.86007" y1="13.7546" x2="8.98572" y2="13.7546" gradientUnits="userSpaceOnUse">
<stop offset="0.02" stop-color="#FE6314"/>
<stop offset="1" stop-color="#FE911D"/>
</linearGradient>
<linearGradient id="paint26_linear_15153_6487" x1="8.95703" y1="13.7546" x2="9.99054" y2="13.7546" gradientUnits="userSpaceOnUse">
<stop offset="0.02" stop-color="#FE6314"/>
<stop offset="1" stop-color="#FE911D"/>
</linearGradient>
<linearGradient id="paint27_linear_15153_6487" x1="10.0742" y1="13.7651" x2="11.0999" y2="13.7651" gradientUnits="userSpaceOnUse">
<stop offset="0.02" stop-color="#FE6314"/>
<stop offset="1" stop-color="#FE911D"/>
</linearGradient>
<linearGradient id="paint28_linear_15153_6487" x1="11.0977" y1="13.3253" x2="11.5291" y2="13.3253" gradientUnits="userSpaceOnUse">
<stop offset="0.02" stop-color="#FE6314"/>
<stop offset="1" stop-color="#FE911D"/>
</linearGradient>
<clipPath id="clip0_15153_6487">
<rect width="18" height="18" fill="white"/>
</clipPath>
</defs>
</svg>
