<svg width="18" height="18" viewBox="0 0 18 18" fill="none" xmlns="http://www.w3.org/2000/svg">
<rect width="18" height="18" rx="4" fill="#F5F5F5"/>
<path d="M14.0331 6.1574C13.9634 6.0871 13.8804 6.0313 13.789 5.99323C13.6976 5.95515 13.5996 5.93555 13.5006 5.93555C13.4016 5.93555 13.3036 5.95515 13.2122 5.99323C13.1208 6.0313 13.0378 6.0871 12.9681 6.1574L9.53309 9.5924C9.46337 9.66269 9.38042 9.71849 9.28903 9.75656C9.19763 9.79464 9.0996 9.81424 9.00059 9.81424C8.90159 9.81424 8.80356 9.79464 8.71216 9.75656C8.62077 9.71849 8.53782 9.66269 8.46809 9.5924L5.03309 6.1574C4.96337 6.0871 4.88042 6.0313 4.78903 5.99323C4.69763 5.95515 4.5996 5.93555 4.50059 5.93555C4.40159 5.93555 4.30356 5.95515 4.21216 5.99323C4.12077 6.0313 4.03782 6.0871 3.96809 6.1574C3.82841 6.29792 3.75 6.48801 3.75 6.68615C3.75 6.88428 3.82841 7.07437 3.96809 7.2149L7.41059 10.6574C7.83247 11.0787 8.40434 11.3154 9.00059 11.3154C9.59685 11.3154 10.1687 11.0787 10.5906 10.6574L14.0331 7.2149C14.1728 7.07437 14.2512 6.88428 14.2512 6.68615C14.2512 6.48801 14.1728 6.29792 14.0331 6.1574Z" fill="#0E0D5D"/>
</svg>
