<svg width="18" height="18" viewBox="0 0 18 18" fill="none" xmlns="http://www.w3.org/2000/svg">
<path d="M18.0016 3.6C18.0016 1.62 16.3816 0 14.4016 0H13.5016C12.9616 0 12.6016 0.36 12.6016 0.9C12.6016 1.44 12.9616 1.8 13.5016 1.8H14.4016C15.3916 1.8 16.2016 2.61 16.2016 3.6V4.59C16.2016 5.13 16.5616 5.49 17.1016 5.49C17.6416 5.49 18.0016 5.13 18.0016 4.59V3.6Z" fill="#F75555"/>
<path d="M18.0016 13.4996C18.0016 12.9596 17.6416 12.5996 17.1016 12.5996C16.5616 12.5996 16.2016 12.9596 16.2016 13.4996V14.3996C16.2016 15.3896 15.3916 16.1996 14.4016 16.1996H13.5016C12.9616 16.1996 12.6016 16.5596 12.6016 17.0996C12.6016 17.6396 12.9616 17.9996 13.5016 17.9996H14.4016C16.3816 17.9996 18.0016 16.3796 18.0016 14.3996V13.4996Z" fill="#F75555"/>
<path d="M0 14.3996C0 16.3796 1.62 17.9996 3.6 17.9996H4.5C5.04 17.9996 5.4 17.6396 5.4 17.0996C5.4 16.5596 5.04 16.1996 4.5 16.1996H3.6C2.61 16.1996 1.8 15.3896 1.8 14.3996V13.4996C1.8 12.9596 1.44 12.5996 0.9 12.5996C0.36 12.5996 0 12.9596 0 13.4996V14.3996Z" fill="#F75555"/>
<path d="M4.5 0H3.6C1.62 0 0 1.62 0 3.6V4.5C0 5.04 0.36 5.4 0.9 5.4C1.44 5.4 1.8 5.04 1.8 4.5V3.6C1.8 2.61 2.61 1.8 3.6 1.8H4.5C5.04 1.8 5.4 1.44 5.4 0.9C5.4 0.36 5.04 0 4.5 0Z" fill="#F75555"/>
<path d="M11.7008 6.29961C11.7008 4.76961 10.5308 3.59961 9.00078 3.59961C7.47078 3.59961 6.30078 4.76961 6.30078 6.29961C6.30078 7.82961 7.47078 8.99961 9.00078 8.99961C10.5308 8.99961 11.7008 7.82961 11.7008 6.29961ZM9.00078 7.19961C8.46078 7.19961 8.10078 6.83961 8.10078 6.29961C8.10078 5.75961 8.46078 5.39961 9.00078 5.39961C9.54078 5.39961 9.90078 5.75961 9.90078 6.29961C9.90078 6.83961 9.54078 7.19961 9.00078 7.19961Z" fill="#F75555"/>
<path d="M4.95154 12.0604L4.59154 13.2304C4.41154 13.6804 4.68154 14.2204 5.13154 14.4004C5.58154 14.5804 6.12154 14.3104 6.30154 13.8604L6.66154 12.6004C6.84154 12.0604 7.38154 11.7004 7.92154 11.7004H10.0815C10.6215 11.7004 11.1615 12.0604 11.3415 12.6004L11.7015 13.7704C11.7915 14.1304 12.1515 14.4004 12.5115 14.4004C12.6015 14.4004 12.6915 14.4004 12.7815 14.3104C13.2315 14.1304 13.5015 13.6804 13.3215 13.1404L12.9615 11.9704C12.6015 10.8004 11.4315 9.90039 10.0815 9.90039H9.00154H7.92154C6.57154 9.90039 5.40154 10.8004 4.95154 12.0604Z" fill="#F75555"/>
</svg>
