<svg width="20" height="20" viewBox="0 0 20 20" fill="none" xmlns="http://www.w3.org/2000/svg">
<path d="M1.67707 1.66822L2.53603 0.923909C3.52587 -0.0657821 5.12925 -0.0657821 6.11909 0.923909C6.14363 0.948447 7.65703 2.91965 7.65703 2.91965C8.5896 3.90116 8.5896 5.44704 7.65703 6.42037L6.70809 7.61455C7.90244 10.3219 9.75942 12.1868 12.3772 13.2991L13.5715 12.3422C14.545 11.4015 16.0993 11.4015 17.0728 12.3422C17.0728 12.3422 19.0443 13.8553 19.0688 13.8799C20.0587 14.8696 20.0587 16.4727 19.1097 17.4215L18.2917 18.3621C17.3509 19.3027 16.0829 19.818 14.7086 19.818C8.45872 19.818 0.180042 11.5324 0.180042 5.29163C0.180042 3.9257 0.695414 2.64973 1.67707 1.6764V1.66822ZM14.7086 18.174C15.6412 18.174 16.5002 17.8304 17.0891 17.2334L17.9072 16.2927C18.2426 15.9574 18.259 15.4094 17.9399 15.0577C17.9399 15.0577 15.9848 13.5527 15.9602 13.5282C15.6248 13.1928 15.0358 13.1928 14.6923 13.5282C14.6677 13.5527 13.0234 14.8695 13.0234 14.8695C12.7944 15.0495 12.4917 15.0986 12.2217 14.9922C8.83502 13.6999 6.40541 11.2789 5.00654 7.78631C4.90019 7.51639 4.9411 7.20558 5.12925 6.96838C5.12925 6.96838 6.44631 5.31617 6.46267 5.29981C6.81443 4.94811 6.81443 4.38374 6.46267 4.03203C6.43813 4.00749 4.93292 2.05265 4.93292 2.05265C4.58115 1.73366 4.03306 1.74183 3.65676 2.11808L2.79781 2.86239C2.16791 3.4922 1.81614 4.35102 1.81614 5.28346C1.81614 10.9762 9.8085 18.174 14.7086 18.174Z" fill="#EF400F"/>
</svg>
