<svg width="15" height="15" viewBox="0 0 15 15" fill="none" xmlns="http://www.w3.org/2000/svg">
<path d="M12.1654 6.27409C12.1654 6.21575 12.1654 6.15742 12.107 6.09909V6.04075C12.107 5.98242 12.0487 5.92409 11.9904 5.86576L7.90703 1.78242C7.8487 1.72409 7.79036 1.72409 7.73203 1.66576H7.6737C7.61536 1.66576 7.55703 1.66576 7.4987 1.60742C7.4987 1.60742 7.4987 1.60742 7.44036 1.60742H5.16536C3.88203 1.66576 2.83203 2.71576 2.83203 3.99909V10.9991C2.83203 12.2824 3.88203 13.3324 5.16536 13.3324H9.83203C11.1154 13.3324 12.1654 12.2824 12.1654 10.9991V6.27409C12.1654 6.33242 12.1654 6.33242 12.1654 6.27409ZM8.08203 3.64909L10.182 5.74909H9.2487C8.60703 5.74909 8.08203 5.22409 8.08203 4.58242V3.64909ZM10.9987 10.9991C10.9987 11.6408 10.4737 12.1658 9.83203 12.1658H5.16536C4.5237 12.1658 3.9987 11.6408 3.9987 10.9991V3.99909C3.9987 3.35742 4.5237 2.83242 5.16536 2.83242H6.91536V4.58242C6.91536 5.86576 7.96536 6.91576 9.2487 6.91576H10.9987V10.9991Z" fill="#EF400F"/>
<path d="M5.7474 8.08268H6.91406C7.26406 8.08268 7.4974 7.84935 7.4974 7.49935C7.4974 7.14935 7.26406 6.91602 6.91406 6.91602H5.7474C5.3974 6.91602 5.16406 7.14935 5.16406 7.49935C5.16406 7.84935 5.3974 8.08268 5.7474 8.08268Z" fill="#EF400F"/>
<path d="M5.7474 9.25C5.3974 9.25 5.16406 9.48333 5.16406 9.83333C5.16406 10.1833 5.3974 10.4167 5.7474 10.4167H9.2474C9.5974 10.4167 9.83073 10.1833 9.83073 9.83333C9.83073 9.48333 9.5974 9.25 9.2474 9.25H5.7474Z" fill="#EF400F"/>
</svg>
