<svg width="24" height="24" viewBox="0 0 24 24" fill="none" xmlns="http://www.w3.org/2000/svg">
    <path
        d="M17.5979 22.5599H6.3979C4.5779 22.5599 2.9179 21.1599 2.6179 19.3599L1.28789 11.3999C1.07789 10.1599 1.6779 8.56987 2.6679 7.77987L9.59791 2.22982C10.938 1.14982 13.0479 1.15983 14.3979 2.23983L21.328 7.77987C22.308 8.56987 22.908 10.1599 22.708 11.3999L21.378 19.3599C21.078 21.1299 19.388 22.5599 17.5979 22.5599ZM11.988 2.93984C11.458 2.93984 10.9279 3.09981 10.5379 3.40981L3.6079 8.95986C3.0379 9.41986 2.64791 10.4399 2.76791 11.1599L4.09791 19.1199C4.27791 20.1699 5.3279 21.0599 6.3979 21.0599H17.5979C18.6679 21.0599 19.7178 20.1699 19.8979 19.1099L21.2278 11.1499C21.3479 10.4299 20.948 9.39985 20.388 8.94985L13.458 3.40981C13.058 3.09981 12.528 2.93984 11.988 2.93984Z"
        fill="#EF400F" />
    <path
        d="M15 21.7H15.7V21V16C15.7 13.9565 14.0435 12.3 12 12.3C9.95655 12.3 8.3 13.9565 8.3 16V21V21.7H9H15Z"
        stroke="#EF400F" stroke-width="1.4" />
</svg>
