<svg width="24" height="24" viewBox="0 0 24 24" fill="none" xmlns="http://www.w3.org/2000/svg">
<path d="M20.5 3.95129C20.0315 3.56668 19.4826 3.28805 18.8921 3.13519C18.3016 2.98233 17.684 2.95899 17.0833 3.06682L13.8983 3.63465C13.163 3.76723 12.4944 4.13868 12 4.6893C11.5043 4.13772 10.8338 3.76619 10.0967 3.63465L6.91667 3.06682C6.31596 2.95889 5.69844 2.98193 5.10781 3.1343C4.51718 3.28667 3.96789 3.56464 3.4988 3.94855C3.02972 4.33245 2.65232 4.8129 2.39332 5.35589C2.13432 5.89887 2.00004 6.49112 2 7.0907L2 15.9215C2.00005 16.8794 2.34248 17.807 2.96761 18.5424C3.59274 19.2779 4.46092 19.7747 5.42083 19.9462L10.6592 20.8814C11.5458 21.0395 12.4542 21.0395 13.3408 20.8814L18.5833 19.9462C19.5425 19.7738 20.4097 19.2767 21.034 18.5413C21.6583 17.8059 22.0001 16.8788 22 15.9215V7.0907C22.0004 6.49133 21.8662 5.89924 21.6069 5.35661C21.3476 4.81398 20.9697 4.33415 20.5 3.95129ZM11.1667 19.3047C11.0967 19.2949 11.0267 19.2834 10.9567 19.2712L5.71917 18.3368C5.14314 18.2339 4.62216 17.9357 4.24707 17.4944C3.87198 17.053 3.66658 16.4963 3.66667 15.9215V7.0907C3.66667 6.4397 3.93006 5.81537 4.3989 5.35505C4.86774 4.89472 5.50363 4.63612 6.16667 4.63612C6.31758 4.63647 6.46816 4.64989 6.61667 4.67621L9.8 5.24894C10.183 5.31776 10.5294 5.51606 10.779 5.80944C11.0287 6.10282 11.1658 6.47276 11.1667 6.85506V19.3047ZM20.3333 15.9215C20.3334 16.4963 20.128 17.053 19.7529 17.4944C19.3778 17.9357 18.8569 18.2339 18.2808 18.3368L13.0433 19.2712C12.9733 19.2834 12.9033 19.2949 12.8333 19.3047V6.85506C12.8333 6.47183 12.9702 6.10073 13.2203 5.80647C13.4703 5.51221 13.8176 5.31345 14.2017 5.24485L17.3858 4.67212C17.7464 4.6077 18.117 4.62192 18.4714 4.71377C18.8258 4.80562 19.1553 4.97285 19.4365 5.20362C19.7178 5.43439 19.9439 5.72305 20.0988 6.04916C20.2538 6.37526 20.3339 6.73084 20.3333 7.0907V15.9215Z" fill="#EF400F"/>
</svg>
