<svg width="15" height="15" viewBox="0 0 15 15" fill="none" xmlns="http://www.w3.org/2000/svg">
<path d="M9.6013 2.42578C8.78464 2.42578 8.08464 2.71745 7.5013 3.30078L6.21797 4.58411C5.98464 4.81745 5.98464 5.16745 6.21797 5.40078C6.4513 5.63411 6.8013 5.63411 7.03464 5.40078L8.31797 4.11745C9.01797 3.41745 10.1846 3.41745 10.8846 4.11745C11.2346 4.46745 11.4096 4.93411 11.4096 5.40078C11.4096 5.86745 11.2346 6.33411 10.8846 6.68411L9.6013 7.96745C9.36797 8.20078 9.36797 8.55078 9.6013 8.78411C9.71797 8.90078 9.89297 8.95911 10.0096 8.95911C10.1263 8.95911 10.3013 8.90078 10.418 8.78411L11.7013 7.50078C12.2846 6.91745 12.5763 6.21745 12.5763 5.40078C12.5763 4.58411 12.2846 3.88411 11.7013 3.30078C11.118 2.71745 10.418 2.42578 9.6013 2.42578Z" fill="#BDBDBD"/>
<path d="M5.40078 7.09323C5.63411 6.8599 5.63411 6.5099 5.40078 6.27656C5.16745 6.04323 4.81745 6.04323 4.58411 6.27656L3.30078 7.50156C2.71745 8.0849 2.42578 8.7849 2.42578 9.60156C2.42578 10.4182 2.71745 11.1182 3.30078 11.7016C3.88411 12.2849 4.58411 12.5766 5.40078 12.5766C6.21745 12.5766 6.91745 12.2849 7.50078 11.7016L8.78411 10.4182C9.01745 10.1849 9.01745 9.8349 8.78411 9.60156C8.55078 9.36823 8.20078 9.36823 7.96745 9.60156L6.68411 10.8849C5.98411 11.5849 4.81745 11.5849 4.11745 10.8849C3.76745 10.5349 3.59245 10.0682 3.59245 9.60156C3.59245 9.1349 3.76745 8.66823 4.11745 8.31823L5.40078 7.09323Z" fill="#BDBDBD"/>
<path d="M5.80781 9.19336C5.92448 9.31003 6.09948 9.36836 6.21615 9.36836C6.33281 9.36836 6.50781 9.31003 6.62448 9.19336L9.13281 6.68503C9.36615 6.45169 9.36615 6.10169 9.13281 5.86836C8.89948 5.63503 8.54948 5.63503 8.31615 5.86836L5.80781 8.37669C5.57448 8.55169 5.57448 8.96003 5.80781 9.19336Z" fill="#BDBDBD"/>
</svg>
