<?xml version="1.0" encoding="UTF-8"?>
<svg id="Layer_1" data-name="Layer 1" xmlns="http://www.w3.org/2000/svg" viewBox="0 0 24 24">
  <defs>
    <style>
      .cls-1 {
        fill: #0e0d5d;
      }
    </style>
  </defs>
  <path class="cls-1" d="m12,3.9c1.9,0,3.4,1.5,3.4,3.4s-1.5,3.4-3.4,3.4-3.4-1.5-3.4-3.4,1.5-3.4,3.4-3.4m0-2c-3,0-5.4,2.4-5.4,5.4s2.4,5.4,5.4,5.4,5.4-2.4,5.4-5.4S15,1.9,12,1.9h0Z"/>
  <path class="cls-1" d="m20.3,18.2c0-1.1-.2-2.2-.6-3.2s-1-1.9-1.8-2.7c-.2-.2-.4-.2-.6-.2s-.4.1-.6.2h0c-.2.2-.2.4-.2.6s.1.4.2.6h0c.6.6,1.1,1.4,1.4,2.2s.5,1.7.5,2.5h0c0,.2-.1.4-.4.7-.3.2-.7.5-1.3.7-1.2.4-2.9.7-4.9.7s-3.7-.3-4.8-.8c-.6-.2-1-.5-1.3-.7s-.4-.5-.4-.7h0c0-.9.2-1.7.5-2.5.3-.8.8-1.5,1.4-2.2h0c.2-.2.2-.4.2-.6s-.1-.4-.2-.6h0c-.2-.1-.4-.2-.6-.2s-.4.1-.6.2c-.8.9-1.4,1.8-1.8,2.8s-.6,2.1-.6,3.2c0,0-.4,3.8,8.2,3.8h.2c8.5,0,8.1-3.8,8.1-3.8Z"/>
</svg>