<svg width="14" height="15" viewBox="0 0 14 15" fill="none" xmlns="http://www.w3.org/2000/svg">
<path d="M2.91771 10.8836C2.97604 10.8836 2.97604 10.8836 3.03437 10.8836L4.31771 10.6503C4.90104 10.5336 5.42604 10.2419 5.83437 9.83359L11.1427 4.58359C11.4927 4.29193 11.6677 3.82526 11.6677 3.35859C11.6677 2.89193 11.4927 2.48359 11.1427 2.13359C10.501 1.49193 9.39271 1.49193 8.69271 2.13359L3.38438 7.32526C2.97604 7.73359 2.68438 8.25859 2.56771 8.84193L2.33437 10.1836C2.27604 10.3586 2.33438 10.5919 2.50938 10.7086C2.62604 10.8253 2.74271 10.8836 2.91771 10.8836ZM9.50937 3.00859C9.62604 2.89193 9.80104 2.83359 9.91771 2.83359C10.0927 2.83359 10.2094 2.89193 10.326 3.00859C10.4427 3.12526 10.501 3.24193 10.501 3.35859C10.501 3.41693 10.501 3.59193 10.326 3.76693L10.0927 4.00026L9.27604 3.24193L9.50937 3.00859ZM3.73438 9.13359C3.79271 8.78359 3.96771 8.49193 4.25937 8.20026L8.45937 4.05859L9.27604 4.81693L5.07604 8.95859C4.84271 9.19193 4.49271 9.36693 4.14271 9.42526L3.67604 9.54193L3.73438 9.13359Z" fill="#BDBDBD"/>
<path d="M11.0859 11.584H2.91927C2.56927 11.584 2.33594 11.8173 2.33594 12.1673C2.33594 12.5173 2.56927 12.7507 2.91927 12.7507H11.0859C11.4359 12.7507 11.6693 12.5173 11.6693 12.1673C11.6693 11.8173 11.4359 11.584 11.0859 11.584Z" fill="#BDBDBD"/>
</svg>
