<svg width="28" height="18" viewBox="0 0 28 18" fill="none" xmlns="http://www.w3.org/2000/svg">
<g clip-path="url(#clip0_15153_6530)">
<path fill-rule="evenodd" clip-rule="evenodd" d="M6.71863 13.7809V13.8158L9.62404 15.4987L10.1024 16.3343H11.0631L13.9685 18.0171L16.8739 16.3343H17.8346L18.313 15.4987L21.2184 13.8158V13.7705L23.4276 13.1169C24.8978 12.6133 25.9557 11.0827 25.7885 9.74341L25.6834 8.93377C26.5812 8.17823 27.1028 7.01234 26.9128 5.99891L26.7711 5.24125C27.624 4.43591 28.0789 3.24381 27.8385 2.24269L27.6363 1.42273L20.6983 5.10146L20.6972 5.10085L18.3208 3.72254L17.8424 2.88696H16.8817L13.9763 1.2002L11.0709 2.88696H10.1024L9.62404 3.72254L7.22815 5.11256H7.22426L7.22328 5.11312L0.26622 1.42273L0.0639697 2.24269C-0.176117 3.24247 0.277252 4.43274 1.128 5.23804L0.985665 5.99891C0.798417 7.01338 1.3198 8.18062 2.21831 8.9361L2.11358 9.74341C1.94634 11.0827 3.00426 12.6133 4.47447 13.1169L6.71863 13.7809Z" fill="url(#paint0_linear_15153_6530)"/>
<path opacity="0.54" d="M26.8739 4.48272L26.8272 4.52567C26.6367 4.70137 26.4227 4.85756 26.1971 4.98641L26.1777 4.99812C26.1116 5.03716 26.0416 5.07231 25.9716 5.10745L24.3808 5.77903L21.7632 6.88792L21.2731 7.09487L20.3436 7.49313L20.3358 7.49704L19.9857 7.64541L19.6435 7.78988L19.6318 7.79378L19.2701 7.94606L19.2623 7.91873L19.1573 7.60246L19.0484 7.27057L18.6322 6.00159L18.5311 5.70094L18.5272 5.68532L18.4922 5.57599V5.57209L18.5155 5.56038L18.5233 5.55647L18.6166 5.50571L19.0406 5.27925L19.06 5.27144L19.4023 5.09183L19.7757 4.8927L19.7951 4.88098L20.7481 4.37339L21.0942 4.18988L21.1253 4.17426L21.242 4.11179L27.7335 0.664062L27.9357 1.48402C28.1808 2.48749 27.7257 3.67838 26.8739 4.48272Z" fill="url(#paint1_linear_15153_6530)"/>
<path d="M25.9208 5.13479L19.2154 7.97731L18.4375 5.59943L27.6866 0.695312L27.8888 1.51527C28.2039 2.8272 27.3248 4.46711 25.9208 5.13479Z" fill="url(#paint2_linear_15153_6530)"/>
<path opacity="0.54" d="M24.723 5.20457L19.1067 7.62149L18.4844 5.72387L26.1349 1.77637L26.2982 2.405C26.5511 3.40457 25.8471 4.67355 24.723 5.20457Z" fill="url(#paint3_linear_15153_6530)"/>
<path opacity="0.54" d="M27.0285 6.02859C26.9196 6.81731 26.4567 7.61384 25.7839 8.18C25.7683 8.19562 25.7527 8.20734 25.7333 8.22295C25.531 8.39085 25.3094 8.53141 25.0721 8.64855C24.9982 8.68369 24.9243 8.71883 24.8504 8.75007L23.1468 9.36308L21.2721 10.0347L20.3425 10.3705L20.3348 10.3744L19.9847 10.4993L19.6425 10.6243L19.6308 10.6282L18.04 11.1982L18.0011 11.2099L17.9078 10.8585L17.3905 8.92187L17.3555 8.79302V8.78911L17.6122 8.66807L17.9078 8.53141L17.935 8.5197L18.2617 8.37133L18.3006 8.3518L18.5262 8.25029L19.2029 7.93792L19.2535 7.91449L19.6269 7.74269L19.6386 7.73879L19.9808 7.5787L20.3309 7.41862L20.3387 7.41471L21.2721 6.98521L21.7233 6.77827L24.0764 5.6928L26.8612 4.4082L26.869 4.45896L26.8729 4.47458L27.0168 5.23597C27.0635 5.50148 27.0674 5.76699 27.0285 6.02859Z" fill="url(#paint4_linear_15153_6530)"/>
<path d="M24.7996 8.77351L17.9503 11.2373L17.3047 8.82036L26.8066 4.43945L26.9621 5.27112C27.2111 6.59867 26.2387 8.18783 24.7996 8.77351Z" fill="url(#paint5_linear_15153_6530)"/>
<path opacity="0.54" d="M23.6018 8.77785L17.8571 10.8785L17.3398 8.94965L25.2004 5.43555L25.3287 6.07199C25.5271 7.08327 24.7531 8.3093 23.6018 8.77785Z" fill="url(#paint6_linear_15153_6530)"/>
<path opacity="0.54" d="M25.1637 11.2067C24.7942 11.6635 24.3236 12.0266 23.7907 12.2648L23.7713 12.2726C23.6935 12.3078 23.6118 12.339 23.5301 12.3663L21.2743 13.034L17.7738 14.0687L17.7543 14.0765L16.5486 14.4318L16.5291 14.342L16.4747 14.0765L16.4552 13.9906L16.4514 13.9789L16.2336 12.9169L16.2063 12.788V12.7802L16.0702 12.1204L16.043 11.9915V11.9876L16.8831 11.6557H16.887L16.9842 11.6167L17.9449 11.2379L17.9955 11.2184L19.6212 10.5781L19.6329 10.5741L19.9752 10.4375L20.3252 10.3008L20.333 10.2969L21.2665 9.9299L23.0401 9.23098L25.7743 8.15723V8.18065L25.8793 8.9928C25.9844 9.74248 25.6926 10.5507 25.1637 11.2067Z" fill="url(#paint7_linear_15153_6530)"/>
<path d="M23.4754 12.3898L16.4939 14.4553L15.9883 12.0032L25.7274 8.17676L25.8363 9.01624C26.0036 10.3555 24.9456 11.8861 23.4754 12.3898Z" fill="url(#paint8_linear_15153_6530)"/>
<path opacity="0.54" d="M22.2776 12.3228L16.424 14.0877L16.0195 12.1315L24.0668 9.07812L24.1562 9.72238C24.2962 10.7454 23.4522 11.9206 22.2776 12.3228Z" fill="url(#paint9_linear_15153_6530)"/>
<path opacity="0.54" d="M9.51347 5.57209L9.47069 5.70094L9.41235 5.88445L8.95339 7.28228L8.84838 7.60246L8.74336 7.91873V7.92263L8.73559 7.94996L8.40109 7.8094L8.3622 7.79378L8.05882 7.66493L7.701 7.51265L7.65821 7.49313L6.76753 7.11439L6.13745 6.84888L3.57431 5.76341L2.03021 5.10745C1.9602 5.07231 1.89019 5.03716 1.82407 4.99812L1.80462 4.9864C1.57904 4.85755 1.36512 4.70137 1.17453 4.52567L1.12786 4.48272C0.276077 3.67838 -0.178987 2.48749 0.0660475 1.48402L0.268298 0.664062L6.65085 4.04931L6.81032 4.13521L6.89588 4.18207L7.27705 4.3851L8.20273 4.87708L8.24941 4.9005L8.62279 5.09964L8.93784 5.26753L8.98062 5.29096L9.42012 5.52523L9.51347 5.57209Z" fill="url(#paint10_linear_15153_6530)"/>
<path d="M2.0789 5.13479L8.78038 7.97731L9.55827 5.59943L0.313095 0.695312L0.110845 1.51527C-0.204199 2.8272 0.674812 4.46711 2.0789 5.13479Z" fill="url(#paint11_linear_15153_6530)"/>
<path opacity="0.54" d="M3.27897 5.20457L8.89531 7.62149L9.51762 5.72387L1.86711 1.77637L1.70376 2.405C1.45094 3.40457 2.15493 4.67355 3.27897 5.20457Z" fill="url(#paint12_linear_15153_6530)"/>
<path opacity="0.54" d="M10.6409 8.79302L10.6059 8.92187L10.0886 10.8546L9.99529 11.206L9.96029 11.1943L8.40062 10.636L8.36173 10.6204L8.05835 10.511L7.69664 10.3822L7.65385 10.3666L6.76706 10.0464L4.76012 9.32404L3.14601 8.74617C3.07211 8.71493 3.0021 8.68369 2.93209 8.64855C2.69483 8.53141 2.46924 8.38695 2.26311 8.21905C2.24755 8.20734 2.2281 8.19172 2.21254 8.1761C1.54356 7.60994 1.08461 6.81732 0.967925 6.0325C0.929031 5.77089 0.93292 5.50148 0.979593 5.23987L1.1235 4.47849L1.12739 4.46287L1.13517 4.41211L3.87333 5.67328L6.16809 6.73141L6.75928 7.00473L7.64996 7.41471L7.69275 7.43423L8.05058 7.59823L8.35395 7.73879L8.39285 7.75831L8.739 7.9184L8.78957 7.94183L9.51689 8.27762L9.77359 8.39476L9.83582 8.42209L10.0108 8.50408L10.0575 8.52751L10.3726 8.67198L10.6409 8.79302Z" fill="url(#paint13_linear_15153_6530)"/>
<path d="M3.19653 8.77351L10.0458 11.2373L10.6915 8.82036L1.18958 4.43945L1.034 5.27112C0.788971 6.59867 1.75744 8.18783 3.19653 8.77351Z" fill="url(#paint14_linear_15153_6530)"/>
<path opacity="0.54" d="M4.39854 8.77784L10.1432 10.8785L10.6605 8.94964L2.79999 5.43164L2.67164 6.06808C2.47328 7.08327 3.24727 8.3093 4.39854 8.77784Z" fill="url(#paint15_linear_15153_6530)"/>
<path opacity="0.54" d="M11.9561 11.9798L11.9288 12.1125L11.7888 12.788V12.7958L11.7616 12.9286L11.5477 13.9711L11.5438 13.9828L11.5243 14.0765L11.4699 14.3225L11.4465 14.4358L10.2642 14.0843L10.2253 14.0726L6.76367 13.0496L4.4689 12.3702C4.38723 12.3429 4.30555 12.3117 4.22387 12.2765L4.20831 12.2687C3.65601 12.0149 3.16983 11.6362 2.79645 11.152C2.29082 10.5078 2.01856 9.71905 2.11191 8.98889L2.21692 8.17675V8.15332L4.86174 9.19193L6.76756 9.9377L7.65824 10.2852L7.70102 10.3008L8.05885 10.4414L8.36222 10.5585L8.40112 10.5741L9.99967 11.2028L10.0502 11.2223L10.9565 11.5776L11.0537 11.6167H11.0576L11.9561 11.9798Z" fill="url(#paint16_linear_15153_6530)"/>
<path d="M4.52281 12.3898L11.5043 14.4553L12.01 12.0032L2.27083 8.17676L2.16192 9.01624C1.99468 10.3555 3.0526 11.8861 4.52281 12.3898Z" fill="url(#paint17_linear_15153_6530)"/>
<path opacity="0.54" d="M5.72191 12.3228L11.5755 14.0877L11.98 12.1315L3.93277 9.07812L3.84331 9.72238C3.70329 10.7454 4.5473 11.9206 5.72191 12.3228Z" fill="url(#paint18_linear_15153_6530)"/>
<path d="M19.9797 12.3383L14.0211 15.7938L8.05859 12.3383V5.42721L14.0211 1.97168L19.9797 5.42721V12.3383Z" fill="url(#paint19_radial_15153_6530)"/>
<path d="M21.2711 8.0514V4.68177H21.2673L20.9444 4.49044L20.9094 4.47092L20.7461 4.37331L18.3696 2.995L17.8912 2.15942H16.9305L14.0251 0.472656L11.1197 2.15942H10.1513L9.67287 2.995L7.27698 4.38502H7.27309L7.10973 4.47873L7.05139 4.50997L6.76746 4.67786V8.04749L6.28906 8.88307L6.71301 9.62103L6.76746 9.71864V13.0883L9.67287 14.7711L10.1513 15.6067H11.112L14.0174 17.2896L16.9228 15.6067H17.8834L18.3619 14.7711L21.2673 13.0883V9.71864L21.3334 9.60541L21.7457 8.88697L21.2711 8.0514ZM11.9287 14.1855L11.5981 13.9941H11.5942L11.5515 13.9668H11.0964L11.0925 13.9629L11.0886 13.9512L11.0808 13.9356L10.8708 13.5685L10.4896 13.3499L8.40102 12.1434V9.27743L8.18321 8.89869L8.17544 8.88307L8.18321 8.86745L8.40102 8.48871V5.62667L8.84053 5.37287L8.98055 5.29088H8.98444L10.4935 4.41626L10.8747 4.1976L11.0925 3.81496L11.1003 3.79934H11.5515L11.9287 3.58068L14.0174 2.37027L16.106 3.58068L16.4871 3.79934H16.9422L16.95 3.81496L17.1522 4.16637L17.1678 4.1976L17.5451 4.41626L19.0347 5.27916L19.1747 5.36116L19.622 5.62276L19.6337 5.63057V8.49261L19.8437 8.85574L19.8554 8.87135L19.8632 8.88697L19.8554 8.90259L19.6376 9.28133V12.1434L17.549 13.3538L17.1717 13.5724L16.9694 13.9238L16.9539 13.9512L16.9461 13.9668H16.491L16.4599 13.9863L16.4132 14.0137H16.4094L16.1138 14.1855L14.0251 15.3959L14.0135 15.3881L11.9287 14.1855Z" fill="url(#paint20_linear_15153_6530)"/>
<path opacity="0.26" d="M20.4638 8.87099L20.0748 8.19159V5.38031L20.067 5.37641L19.6781 5.14994L19.5342 5.06404L17.6517 3.97467L17.2511 3.27966H16.4499L14.0229 1.87402L11.5959 3.27966H10.7946L10.394 3.97467L8.49598 5.07576H8.49209L8.34818 5.15775L7.96702 5.38031V8.19159L7.56641 8.8866L7.96702 9.58161V12.3929L9.24275 13.1348L10.3901 13.8024L10.429 13.8649L10.4329 13.8727L10.7907 14.4974H11.592L14.0073 15.8953L14.019 15.9031L16.446 14.4974H17.2472L17.6128 13.861L17.6167 13.8532L17.6439 13.8024L18.8341 13.1152L20.0748 12.4007V9.58942L20.4754 8.89441L20.4638 8.87099ZM19.4019 8.50786L19.6003 8.85537L19.6081 8.87099L19.6159 8.8827L19.6081 8.89441L19.398 9.25754V11.9985L17.395 13.1582L17.0333 13.369L16.8388 13.7048L16.8232 13.7322L16.8155 13.7439H16.3799L16.3487 13.7634L16.3021 13.7907H16.2982L16.0142 13.9547L14.0112 15.1144L13.9995 15.1066L12.0198 13.9586L11.7048 13.7751H11.7009L11.6581 13.7478H11.2225L11.2186 13.7439L11.2147 13.7361L11.2069 13.7243L11.0047 13.3729L10.6429 13.1621L8.63989 12.0024V9.26144L8.42986 8.89832L8.42208 8.8866L8.42986 8.87489L8.63989 8.51177V5.77077L9.05995 5.52478L9.19608 5.44669L10.6391 4.61112L11.0008 4.40027L11.2108 4.03715L11.2186 4.02543H11.6542L12.0159 3.81459L14.019 2.65493L16.022 3.81459L16.3837 4.02543H16.8194L16.8271 4.03715L17.0216 4.37294L17.0372 4.40027L17.3989 4.61112L18.8224 5.43498L18.9585 5.51307L19.3864 5.76296L19.398 5.77077L19.4019 8.50786Z" fill="#E3A209"/>
<path d="M20.3418 8.15337L20.334 8.13775V5.19372L19.945 4.96725L19.7934 4.87745L17.7942 3.71779L17.3741 2.98764H16.534L13.9942 1.51562L11.4544 2.98764H10.6182L10.1981 3.71779L8.20675 4.87354L8.05506 4.96335L7.65834 5.18981V8.13385L7.23828 8.864L7.65834 9.59415V12.5382L8.97297 13.2996L10.1981 14.0102L10.2331 14.0688L10.237 14.0766L10.6182 14.7404H11.4583L13.9942 16.2124L14.0098 16.2046L16.534 14.7404H17.3741L17.7514 14.0805L17.7553 14.0727L17.7903 14.0102L18.9999 13.3074L20.3301 12.5382V9.59415L20.7502 8.8679L20.3418 8.15337ZM19.6261 8.47354L19.8439 8.85619L19.8517 8.87181L19.8439 8.88743L19.6261 9.27007V12.1399L17.5297 13.3542L17.1485 13.5729L16.9385 13.9399L16.9307 13.9555L16.923 13.9712H16.4679L16.4523 13.979L16.4057 14.0063H16.4018L16.0867 14.1859L14.0059 15.3924L13.9942 15.4002L11.8978 14.1859L11.5944 14.0102H11.5906L11.5439 13.9829L11.5244 13.9712L11.5167 13.9673H11.0616L11.0538 13.9516L11.0421 13.9321L10.836 13.5729L10.4548 13.3542L8.35844 12.1399V9.27007L8.14063 8.88743L8.13285 8.87181L8.14063 8.85619L8.35844 8.47354V5.60369L8.79405 5.3499L8.93407 5.2679H8.93796L10.4548 4.38938L10.836 4.16682L11.0538 3.78417L11.0616 3.76855H11.5167L11.8978 3.5499L13.9942 2.33558L16.0906 3.5538L16.4718 3.77246H16.9268L16.9346 3.78808L16.9424 3.80369L16.9502 3.81931L17.1524 4.17072L17.5336 4.38938L19.0583 5.27181H19.0621L19.2022 5.3538L19.63 5.60369L19.6261 8.47354Z" fill="#FFF39F"/>
<path d="M20.7503 8.86792L20.342 8.15729V5.22107L20.3342 5.21716L19.9258 4.97898L19.7741 4.89308L17.806 3.75295L17.3899 3.02671H16.5536L14.0216 1.55859L11.4896 3.02671H10.6534L10.2333 3.75295L8.25361 4.90089H8.24972L8.09803 4.98679L7.70131 5.21716V8.15339L7.28125 8.87963L7.70131 9.60588V12.5421L9.03538 13.3152L10.2333 14.0141L10.2722 14.0805L10.2761 14.0883L10.6495 14.7404H11.4857L14.01 16.2007L14.0216 16.2085L16.5536 14.7404H17.3899L17.771 14.0727L17.7749 14.0649L17.806 14.0141L19.0468 13.2957L20.342 12.546V9.60979L20.762 8.88354L20.7503 8.86792ZM19.638 8.48918L19.848 8.8523L19.8597 8.86792L19.8674 8.88354L19.8597 8.89916L19.6419 9.2779V12.1399L17.5532 13.3503L17.176 13.569L16.9737 13.9204L16.9581 13.9477L16.9504 13.9634H16.4953L16.4642 13.9829L16.4175 14.0102H16.4136L16.118 14.182L14.0294 15.3924L14.0177 15.3846L11.9408 14.1859L11.6102 13.9946H11.6063L11.5635 13.9673H11.1084L11.1046 13.9634L11.1007 13.9517L11.0929 13.936L10.8829 13.569L10.5017 13.3503L8.40141 12.1438V9.2779L8.1836 8.89916L8.17582 8.88354L8.1836 8.86792L8.40141 8.48918V5.62714L8.84091 5.37334L8.98093 5.29135H8.98482L10.4939 4.41673L10.8751 4.19807L11.0929 3.81543L11.1007 3.79981H11.5518L11.9291 3.58115L14.0177 2.37074L16.1064 3.58115L16.4875 3.79981H16.9426L16.9504 3.81543L17.1526 4.16684L17.1682 4.19807L17.5455 4.41673L19.0351 5.27963L19.1751 5.36163L19.6224 5.62324L19.6341 5.63104L19.638 8.48918Z" fill="url(#paint21_linear_15153_6530)"/>
<path d="M12.4647 8.93336L13.4643 11.3503C13.5499 11.5533 13.3554 11.8266 13.1259 11.8227L12.313 11.8188C12.2236 11.8227 12.138 11.7681 12.1069 11.6822L11.7646 10.831L11.4418 9.9134L10.7339 10.8154L10.0221 11.6705C9.95603 11.7524 9.85879 11.8032 9.75378 11.8071L8.92533 11.8032C8.69585 11.8032 8.62195 11.5299 8.79309 11.3269L10.7884 8.98022L9.88602 6.61405C9.80823 6.41102 10.0027 6.14551 10.2283 6.14551L11.0062 6.14941C11.0995 6.14551 11.1851 6.20408 11.2162 6.29388L11.5157 7.10603L11.8152 8.03141L12.5347 7.11384L13.1998 6.30169C13.2659 6.21969 13.3632 6.16894 13.4682 6.16113L14.2461 6.16503C14.4717 6.16503 14.5494 6.43835 14.3822 6.63748L12.4647 8.93336Z" fill="#E3A209"/>
<path d="M14.1258 11.9087C13.9274 11.9087 13.803 11.733 13.8497 11.5221L14.9426 6.47353C14.9893 6.26268 15.1876 6.08698 15.386 6.09088L17.6302 6.1026C18.0463 6.1065 18.4003 6.1924 18.6764 6.3642C18.9526 6.5321 19.1587 6.79761 19.2521 7.10607C19.3571 7.42624 19.361 7.80108 19.2715 8.22277C19.1898 8.62494 19.0187 9.00759 18.7698 9.33557C18.5325 9.64793 18.2253 9.90173 17.8713 10.0696C17.5096 10.2414 17.1129 10.3273 16.7123 10.3195L15.4949 10.3156L15.2304 11.5299C15.1837 11.7408 14.9854 11.9165 14.787 11.9126L14.1258 11.9087ZM16.9417 9.00368C17.1673 9.01149 17.3851 8.9373 17.5602 8.79284C17.7313 8.64837 17.8519 8.44533 17.8908 8.22277C17.9452 7.98069 17.9141 7.79327 17.8091 7.6488C17.7041 7.50433 17.5252 7.43405 17.284 7.43405L16.1211 7.43015L15.7827 8.99978L16.9417 9.00368Z" fill="#E3A209"/>
<path d="M12.4647 8.81715L13.4643 11.2341C13.5499 11.4371 13.3554 11.7104 13.1259 11.7065L12.313 11.7026C12.2236 11.7065 12.138 11.6519 12.1069 11.566L11.7646 10.7148L11.4418 9.79719L10.7339 10.6991L10.0221 11.5542C9.95603 11.6362 9.85879 11.687 9.75378 11.6909L8.92533 11.687C8.69585 11.687 8.62195 11.4137 8.79309 11.2106L10.7884 8.864L9.88602 6.49784C9.80823 6.29481 10.0027 6.0293 10.2283 6.0293L11.0062 6.0332C11.0995 6.0293 11.1851 6.08787 11.2162 6.17767L11.5157 6.98982L11.8152 7.9152L12.5347 6.99763L13.1998 6.18548C13.2659 6.10348 13.3632 6.05272 13.4682 6.04492L14.2461 6.04882C14.4717 6.04882 14.5494 6.32214 14.3822 6.52127L12.4647 8.81715Z" fill="url(#paint22_linear_15153_6530)"/>
<path d="M14.1258 11.7915C13.9274 11.7915 13.803 11.6158 13.8497 11.4049L14.9426 6.35634C14.9893 6.1455 15.1876 5.96979 15.386 5.9737L17.6302 5.98541C18.0463 5.98931 18.4003 6.07522 18.6764 6.24702C18.9526 6.41491 19.1587 6.68042 19.2521 6.98888C19.3571 7.30905 19.361 7.68389 19.2715 8.10558C19.1898 8.50775 19.0187 8.8904 18.7698 9.21838C18.5325 9.53075 18.2253 9.78454 17.8713 9.95244C17.5096 10.1242 17.1129 10.2101 16.7123 10.2023L15.4949 10.1984L15.2304 11.4127C15.1837 11.6236 14.9854 11.7993 14.787 11.7954L14.1258 11.7915ZM16.9417 8.88649C17.1673 8.8943 17.3851 8.82012 17.5602 8.67565C17.7313 8.53118 17.8519 8.32814 17.8908 8.10558C17.9452 7.8635 17.9141 7.67608 17.8091 7.53161C17.7041 7.38715 17.5252 7.31686 17.284 7.31686L16.1211 7.31296L15.7827 8.88259L16.9417 8.88649Z" fill="url(#paint23_linear_15153_6530)"/>
<path d="M18.6325 6.31824C18.897 6.47833 19.0954 6.73213 19.1848 7.02887C19.286 7.33733 19.2899 7.69655 19.2004 8.10653C19.1187 8.49308 18.9554 8.86011 18.7181 9.17638C18.4925 9.47703 18.1969 9.71911 17.8585 9.8792C17.5085 10.0432 17.1234 10.1252 16.7384 10.1213L15.4471 10.1135L15.1671 11.4098C15.1321 11.5777 14.9726 11.7143 14.817 11.7143L14.148 11.7104C13.9925 11.7104 13.8913 11.5738 13.9302 11.4059L15.0232 6.35729C15.0582 6.18939 15.2176 6.05273 15.3732 6.05273L17.6174 6.06445C18.0258 6.06835 18.3642 6.15035 18.6325 6.31824ZM17.6057 8.73516C17.7963 8.57508 17.9247 8.35252 17.9713 8.10653C18.0297 7.84102 17.9986 7.63017 17.878 7.47399C17.7574 7.31781 17.5668 7.23581 17.3062 7.23581L16.0694 7.23191L15.696 8.96163L16.9329 8.96553C17.1779 8.97334 17.4152 8.89135 17.6057 8.73516Z" fill="#FFF8CC"/>
<path d="M18.6521 6.31824C18.9166 6.47833 19.1149 6.73213 19.2044 7.02887C19.3055 7.33733 19.3094 7.69655 19.2199 8.10653C19.1383 8.49308 18.9749 8.86011 18.7376 9.17638C18.5121 9.47703 18.2165 9.71911 17.8781 9.8792C17.528 10.0432 17.143 10.1291 16.7579 10.1213L15.4666 10.1135L15.1866 11.4098C15.1516 11.5777 14.9921 11.7143 14.8365 11.7143L14.1676 11.7104C14.012 11.7104 13.9109 11.5738 13.9498 11.4059L15.0427 6.35729C15.0777 6.18939 15.2372 6.05273 15.3927 6.05273L17.6369 6.06445C18.0453 6.06835 18.3837 6.15035 18.6521 6.31824ZM17.6253 8.73516C17.8158 8.57508 17.9442 8.35252 17.9909 8.10653C18.0492 7.84102 18.0181 7.63408 17.8975 7.47399C17.777 7.31781 17.5864 7.23972 17.3258 7.23581L16.0889 7.22801L15.7156 8.95772L16.9524 8.96163C17.1935 8.97334 17.4347 8.89135 17.6253 8.73516Z" fill="url(#paint24_linear_15153_6530)"/>
<path d="M12.3779 8.82012L13.3697 11.1785C13.4513 11.3737 13.288 11.6041 13.0663 11.6002L12.2806 11.5963C12.1873 11.5963 12.1523 11.5494 12.1173 11.4674L11.4444 9.71817L10.017 11.4674C9.94697 11.5494 9.90808 11.5845 9.81473 11.5845L9.0174 11.5806C8.7957 11.5806 8.73347 11.3464 8.89683 11.1511L10.8454 8.85526L9.96642 6.57109C9.89252 6.37587 10.0598 6.12207 10.2776 6.12207L11.0282 6.12597C11.1216 6.12597 11.1721 6.17283 11.2033 6.25873L11.8022 7.98454L13.1713 6.28216C13.2413 6.20016 13.3113 6.13769 13.4047 6.13769L14.1553 6.14159C14.3731 6.14159 14.4432 6.37977 14.2759 6.575L12.3779 8.82012Z" fill="#FFF8CC"/>
<path d="M12.3857 8.82403L13.3775 11.1824C13.4592 11.3776 13.2958 11.608 13.0741 11.6041L12.2884 11.6002C12.1951 11.6002 12.1601 11.5533 12.1251 11.4713L11.4522 9.72207L10.0248 11.4713C9.95478 11.5533 9.91589 11.5885 9.82254 11.5885L9.02521 11.5845C8.80351 11.5845 8.74128 11.3503 8.90464 11.155L10.8532 8.86307L9.97423 6.57891C9.90033 6.38368 10.0676 6.12988 10.2854 6.12988L11.036 6.13379C11.1294 6.13379 11.18 6.18064 11.2111 6.26654L11.81 7.99236L13.1791 6.28997C13.2491 6.20797 13.3191 6.1455 13.4125 6.1455L14.1631 6.14941C14.381 6.14941 14.451 6.38758 14.2837 6.58281L12.3857 8.82403Z" fill="url(#paint25_linear_15153_6530)"/>
<path d="M13.4716 6.39626L11.6961 8.40594L10.807 6.41032C10.7883 6.36815 10.7463 6.34082 10.7 6.34082H10.4212C10.3364 6.34082 10.2796 6.42867 10.3146 6.50637L11.343 8.80459L9.29517 11.1255C9.22983 11.1996 9.27962 11.3172 9.37841 11.3207L9.68373 11.332C9.71873 11.3332 9.75257 11.3187 9.77552 11.2926L11.5526 9.28134L12.4417 11.2731C12.4604 11.3152 12.5024 11.3426 12.5483 11.3426H12.8268C12.9116 11.3426 12.9683 11.2547 12.9337 11.177L11.9093 8.87878L13.9629 6.55167C14.0298 6.47592 13.9761 6.35644 13.8754 6.35644H13.5595C13.5261 6.35644 13.4942 6.37089 13.472 6.39587L13.4716 6.39626Z" fill="#C45A10"/>
<path d="M18.5057 6.95507C18.272 6.66418 17.9254 6.50293 17.5291 6.50097L15.6264 6.49316H15.4883C15.4183 6.49316 15.358 6.54197 15.3432 6.61069L14.3316 11.279C14.3114 11.3719 14.3822 11.4598 14.4767 11.4598H14.6758C14.7458 11.4598 14.8061 11.411 14.8209 11.3422L15.1608 9.76987C15.1608 9.76987 16.9126 9.77689 16.913 9.77689C17.7512 9.77689 18.561 9.07837 18.7574 8.18501C18.8542 7.7231 18.7628 7.27447 18.5057 6.95507ZM16.9305 9.2654L15.2798 9.25525L15.7672 7.00154L17.4995 7.00857C17.7485 7.01013 17.9639 7.10852 18.1059 7.28618C18.27 7.49117 18.326 7.78791 18.2591 8.10028C18.1246 8.73204 17.5159 9.2654 16.9305 9.2654Z" fill="#C45A10"/>
<path opacity="0.22" d="M6.64701 4.04931C6.64701 4.05192 6.64701 4.05192 6.64701 4.04931C6.64701 4.11569 6.64312 4.17426 6.64312 4.23673V4.26406C6.612 5.01764 6.47976 5.76341 6.25807 6.48185C6.23084 6.56385 6.20361 6.64975 6.17639 6.73174V6.73565C6.16472 6.77079 6.15305 6.80983 6.13749 6.84497L6.1336 6.85278C6.12582 6.87231 6.11805 6.89183 6.11027 6.91526C5.83801 7.65712 5.46462 8.35994 5.00567 9.00029C4.959 9.06667 4.91232 9.13304 4.86176 9.19552C4.82676 9.23847 4.79175 9.28532 4.75675 9.32827C4.75675 9.33218 4.75286 9.33218 4.75286 9.33218C4.74119 9.34779 4.72952 9.35951 4.71785 9.37513C4.45337 9.70311 4.16555 10.0116 3.85829 10.3005C3.53158 10.6051 3.18153 10.8862 2.81203 11.1361L2.78869 11.1517C2.28307 10.5074 2.01081 9.71873 2.10416 8.98857L2.20917 8.17643C1.5363 7.61027 1.07735 6.81764 0.964553 6.03283C0.925658 5.77122 0.929548 5.50181 0.976221 5.2402L1.12013 4.47881C0.276124 3.67838 -0.178939 2.48749 0.0660946 1.48402L0.268345 0.664062L6.64701 4.04931Z" fill="white"/>
<path opacity="0.22" d="M6.81029 4.13521C6.76362 4.17426 6.71306 4.2094 6.66638 4.24844L6.64305 4.26406C5.89239 4.83413 5.05616 5.27925 4.16548 5.5838C4.07214 5.61504 3.9749 5.64628 3.88155 5.67361H3.87766C3.78043 5.70484 3.6793 5.73218 3.57818 5.7556L3.56651 5.75951L3.55095 5.76341C3.27091 5.8376 2.98699 5.89226 2.69917 5.93912C2.25966 6.0055 1.81238 6.04064 1.36898 6.04064C1.2523 6.04064 1.13951 6.03673 1.02282 6.03283H0.97615C0.937256 5.77122 0.941145 5.50181 0.987819 5.2402L1.13173 4.47881C0.276053 3.67838 -0.17901 2.48749 0.066024 1.48402L0.268274 0.664062L6.65083 4.04931L6.81029 4.13521Z" fill="white"/>
<path opacity="0.24" d="M27.014 5.24411C27.0607 5.50181 27.0646 5.76732 27.0257 6.02892C26.9168 6.81764 26.454 7.61417 25.7811 8.18033L25.8861 8.99248C25.9794 9.74215 25.6916 10.5504 25.1588 11.2064L25.1354 11.1907C24.4003 10.6988 23.743 10.0975 23.1829 9.41027L23.1479 9.36732L23.1441 9.36341C23.109 9.32046 23.074 9.27751 23.0429 9.23456C22.9924 9.16818 22.9457 9.10571 22.8951 9.03933C22.4323 8.40289 22.0589 7.70397 21.7828 6.96601C21.775 6.94649 21.7672 6.92306 21.7594 6.90354L21.7555 6.89573C21.7439 6.86059 21.7283 6.82545 21.7166 6.79031V6.7864C21.6894 6.70441 21.6583 6.61851 21.6311 6.53651C21.4444 5.94302 21.3199 5.33391 21.2616 4.71699C21.2616 4.70918 21.2616 4.69747 21.2577 4.68575C21.246 4.56081 21.2382 4.43196 21.2305 4.30311V4.27187C21.2266 4.22111 21.2266 4.17035 21.2266 4.11959V4.11569L27.7297 0.664062L27.9319 1.48402C28.1731 2.48359 27.7219 3.67447 26.8701 4.47881L27.014 5.24411Z" fill="white"/>
<path opacity="0.24" d="M27.0175 5.24411C27.0641 5.50181 27.068 5.76732 27.0291 6.02892L26.9825 6.03283C26.8308 6.04064 26.6752 6.04454 26.5196 6.04454C26.1151 6.04454 25.7106 6.01721 25.31 5.96254C25.0105 5.91959 24.711 5.86103 24.4154 5.79074C24.4077 5.79074 24.4038 5.78684 24.396 5.78684C24.3921 5.78684 24.3882 5.78684 24.3843 5.78293C24.2832 5.75951 24.1821 5.72827 24.0809 5.70094H24.0771C23.9798 5.67361 23.8826 5.64237 23.7854 5.61113C22.8791 5.31048 22.0312 4.86536 21.2689 4.29139L21.2417 4.27187C21.2028 4.24064 21.1639 4.2094 21.1211 4.17816L21.2378 4.11569L27.7331 0.664062L27.9354 1.48402C28.1765 2.48359 27.7253 3.67447 26.8736 4.47881L27.0175 5.24411Z" fill="white"/>
<path opacity="0.16" d="M21.0871 4.18979C21.0482 4.2757 21.0093 4.35769 20.9704 4.43969L20.9431 4.49045C20.7603 4.86528 20.5581 5.22841 20.3403 5.58372C20.3364 5.58763 20.3325 5.59153 20.3325 5.59934C20.2197 5.77895 20.103 5.95465 19.9825 6.12645C19.8697 6.28264 19.7569 6.43491 19.6402 6.58719L19.6285 6.60281C19.4418 6.84099 19.2474 7.06355 19.0451 7.27439C19.0295 7.29001 19.0179 7.30173 19.0023 7.31734V7.32125C18.8817 7.44619 18.7573 7.56724 18.6289 7.68437C18.5978 7.71561 18.5628 7.74294 18.5317 7.77418L18.5278 7.77808C18.2167 8.05921 17.8822 8.313 17.5321 8.53947C17.5282 8.54337 17.5243 8.54337 17.5205 8.54728C17.4504 8.59413 17.3804 8.63708 17.3104 8.68003C17.0304 8.84793 16.7387 8.9963 16.4392 9.12515C16.3653 9.15639 16.2875 9.18763 16.2136 9.21496L16.1942 9.22277C15.5913 9.45314 14.9534 9.58589 14.3078 9.62103H14.2961C14.2572 9.62494 14.2183 9.62494 14.1794 9.62494C14.1211 9.62884 14.0589 9.62884 13.9966 9.62884C13.9188 9.62884 13.8411 9.62884 13.7633 9.62494C13.7244 9.62494 13.6816 9.62103 13.6427 9.62103H13.631C13.0165 9.58199 12.4136 9.45704 11.838 9.24229C11.8302 9.24229 11.8263 9.23839 11.8185 9.23448C11.7291 9.20324 11.6435 9.1681 11.5541 9.12906C11.2507 9.00021 10.959 8.85183 10.6789 8.68394C10.6089 8.64099 10.5389 8.59804 10.4689 8.55118C10.465 8.54728 10.4611 8.54728 10.4572 8.54337C10.1266 8.32862 9.8116 8.08654 9.51212 7.82494L9.50823 7.82103C9.47322 7.7937 9.44211 7.76246 9.41099 7.73513C9.27097 7.60628 9.13095 7.47353 8.99871 7.33296L8.99482 7.32906L8.95204 7.28611C8.76146 7.08698 8.57476 6.87613 8.39974 6.65357C8.38418 6.63795 8.37251 6.61843 8.36085 6.60281C8.25583 6.47396 8.15471 6.3373 8.05747 6.20455C7.93301 6.03274 7.81244 5.85704 7.69964 5.67353C7.68409 5.6501 7.67242 5.63058 7.65686 5.60715C7.43905 5.25574 7.2368 4.89652 7.054 4.52168C7.03844 4.49435 7.02677 4.46702 7.01121 4.43578C6.97232 4.35379 6.93343 4.27179 6.89453 4.18979V4.18589L7.2757 4.38893L9.67158 2.99891L10.15 2.16333H11.1107L14.0161 0.476562L16.9215 2.16333H17.8822L18.3606 2.99891L20.737 4.37721L21.0871 4.18979Z" fill="white"/>
</g>
<defs>
<linearGradient id="paint0_linear_15153_6530" x1="2.45117" y1="10.2002" x2="25.4508" y2="10.1109" gradientUnits="userSpaceOnUse">
<stop stop-color="#EA4F0F"/>
<stop offset="0.49" stop-color="#FF7E18"/>
<stop offset="1" stop-color="#F85811"/>
</linearGradient>
<linearGradient id="paint1_linear_15153_6530" x1="18.4922" y1="4.30506" x2="28.0018" y2="4.30506" gradientUnits="userSpaceOnUse">
<stop stop-color="#FFF18A" stop-opacity="0"/>
<stop offset="0.09" stop-color="#FFF18A" stop-opacity="0.03"/>
<stop offset="0.22" stop-color="#FFF18A" stop-opacity="0.1"/>
<stop offset="0.37" stop-color="#FFF18A" stop-opacity="0.23"/>
<stop offset="0.54" stop-color="#FFF18A" stop-opacity="0.41"/>
<stop offset="0.73" stop-color="#FFF18A" stop-opacity="0.63"/>
<stop offset="0.93" stop-color="#FFF18A" stop-opacity="0.9"/>
<stop offset="1" stop-color="#FFF18A"/>
</linearGradient>
<linearGradient id="paint2_linear_15153_6530" x1="18.3207" y1="5.50451" x2="28.1921" y2="3.29751" gradientUnits="userSpaceOnUse">
<stop stop-color="#FFF188"/>
<stop offset="0.07" stop-color="#FFEA68"/>
<stop offset="0.14" stop-color="#FFE44D"/>
<stop offset="0.22" stop-color="#FFDF36"/>
<stop offset="0.31" stop-color="#FFDB25"/>
<stop offset="0.43" stop-color="#FFD919"/>
<stop offset="0.59" stop-color="#FFD712"/>
<stop offset="1" stop-color="#FFD710"/>
</linearGradient>
<linearGradient id="paint3_linear_15153_6530" x1="18.3717" y1="5.66894" x2="26.5249" y2="3.84611" gradientUnits="userSpaceOnUse">
<stop stop-color="#FFF18A" stop-opacity="0"/>
<stop offset="0.09" stop-color="#FFF18A" stop-opacity="0.03"/>
<stop offset="0.22" stop-color="#FFF18A" stop-opacity="0.1"/>
<stop offset="0.37" stop-color="#FFF18A" stop-opacity="0.23"/>
<stop offset="0.54" stop-color="#FFF18A" stop-opacity="0.41"/>
<stop offset="0.73" stop-color="#FFF18A" stop-opacity="0.63"/>
<stop offset="0.93" stop-color="#FFF18A" stop-opacity="0.9"/>
<stop offset="1" stop-color="#FFF18A"/>
</linearGradient>
<linearGradient id="paint4_linear_15153_6530" x1="17.3555" y1="7.80907" x2="27.0549" y2="7.80907" gradientUnits="userSpaceOnUse">
<stop stop-color="#FFF18A" stop-opacity="0"/>
<stop offset="0.09" stop-color="#FFF18A" stop-opacity="0.03"/>
<stop offset="0.22" stop-color="#FFF18A" stop-opacity="0.1"/>
<stop offset="0.37" stop-color="#FFF18A" stop-opacity="0.23"/>
<stop offset="0.54" stop-color="#FFF18A" stop-opacity="0.41"/>
<stop offset="0.73" stop-color="#FFF18A" stop-opacity="0.63"/>
<stop offset="0.93" stop-color="#FFF18A" stop-opacity="0.9"/>
<stop offset="1" stop-color="#FFF18A"/>
</linearGradient>
<linearGradient id="paint5_linear_15153_6530" x1="17.4266" y1="8.79707" x2="27.3964" y2="7.09238" gradientUnits="userSpaceOnUse">
<stop stop-color="#FFF188"/>
<stop offset="0.07" stop-color="#FFEA68"/>
<stop offset="0.14" stop-color="#FFE44D"/>
<stop offset="0.22" stop-color="#FFDF36"/>
<stop offset="0.31" stop-color="#FFDB25"/>
<stop offset="0.43" stop-color="#FFD919"/>
<stop offset="0.59" stop-color="#FFD712"/>
<stop offset="1" stop-color="#FFD710"/>
</linearGradient>
<linearGradient id="paint6_linear_15153_6530" x1="17.4688" y1="8.96259" x2="25.7032" y2="7.55462" gradientUnits="userSpaceOnUse">
<stop stop-color="#FFF18A" stop-opacity="0"/>
<stop offset="0.09" stop-color="#FFF18A" stop-opacity="0.03"/>
<stop offset="0.22" stop-color="#FFF18A" stop-opacity="0.1"/>
<stop offset="0.37" stop-color="#FFF18A" stop-opacity="0.23"/>
<stop offset="0.54" stop-color="#FFF18A" stop-opacity="0.41"/>
<stop offset="0.73" stop-color="#FFF18A" stop-opacity="0.63"/>
<stop offset="0.93" stop-color="#FFF18A" stop-opacity="0.9"/>
<stop offset="1" stop-color="#FFF18A"/>
</linearGradient>
<linearGradient id="paint7_linear_15153_6530" x1="16.043" y1="11.2945" x2="25.9007" y2="11.2945" gradientUnits="userSpaceOnUse">
<stop stop-color="#FFF18A" stop-opacity="0"/>
<stop offset="0.09" stop-color="#FFF18A" stop-opacity="0.03"/>
<stop offset="0.22" stop-color="#FFF18A" stop-opacity="0.1"/>
<stop offset="0.37" stop-color="#FFF18A" stop-opacity="0.23"/>
<stop offset="0.54" stop-color="#FFF18A" stop-opacity="0.41"/>
<stop offset="0.73" stop-color="#FFF18A" stop-opacity="0.63"/>
<stop offset="0.93" stop-color="#FFF18A" stop-opacity="0.9"/>
<stop offset="1" stop-color="#FFF18A"/>
</linearGradient>
<linearGradient id="paint8_linear_15153_6530" x1="15.9668" y1="11.9564" x2="26.0196" y2="10.8438" gradientUnits="userSpaceOnUse">
<stop stop-color="#FFF188"/>
<stop offset="0.07" stop-color="#FFEA68"/>
<stop offset="0.14" stop-color="#FFE44D"/>
<stop offset="0.22" stop-color="#FFDF36"/>
<stop offset="0.31" stop-color="#FFDB25"/>
<stop offset="0.43" stop-color="#FFD919"/>
<stop offset="0.59" stop-color="#FFD712"/>
<stop offset="1" stop-color="#FFD710"/>
</linearGradient>
<linearGradient id="paint9_linear_15153_6530" x1="15.9992" y1="12.1236" x2="24.3018" y2="11.2047" gradientUnits="userSpaceOnUse">
<stop stop-color="#FFF18A" stop-opacity="0"/>
<stop offset="0.09" stop-color="#FFF18A" stop-opacity="0.03"/>
<stop offset="0.22" stop-color="#FFF18A" stop-opacity="0.1"/>
<stop offset="0.37" stop-color="#FFF18A" stop-opacity="0.23"/>
<stop offset="0.54" stop-color="#FFF18A" stop-opacity="0.41"/>
<stop offset="0.73" stop-color="#FFF18A" stop-opacity="0.63"/>
<stop offset="0.93" stop-color="#FFF18A" stop-opacity="0.9"/>
<stop offset="1" stop-color="#FFF18A"/>
</linearGradient>
<linearGradient id="paint10_linear_15153_6530" x1="-7.27843e-05" y1="4.30701" x2="9.51347" y2="4.30701" gradientUnits="userSpaceOnUse">
<stop stop-color="#FFF18A" stop-opacity="0"/>
<stop offset="0.09" stop-color="#FFF18A" stop-opacity="0.03"/>
<stop offset="0.22" stop-color="#FFF18A" stop-opacity="0.1"/>
<stop offset="0.37" stop-color="#FFF18A" stop-opacity="0.23"/>
<stop offset="0.54" stop-color="#FFF18A" stop-opacity="0.41"/>
<stop offset="0.73" stop-color="#FFF18A" stop-opacity="0.63"/>
<stop offset="0.93" stop-color="#FFF18A" stop-opacity="0.9"/>
<stop offset="1" stop-color="#FFF18A"/>
</linearGradient>
<linearGradient id="paint11_linear_15153_6530" x1="9.39474" y1="5.42693" x2="-0.476724" y2="3.21994" gradientUnits="userSpaceOnUse">
<stop stop-color="#FFF188"/>
<stop offset="0.07" stop-color="#FFEA68"/>
<stop offset="0.14" stop-color="#FFE44D"/>
<stop offset="0.22" stop-color="#FFDF36"/>
<stop offset="0.31" stop-color="#FFDB25"/>
<stop offset="0.43" stop-color="#FFD919"/>
<stop offset="0.59" stop-color="#FFD712"/>
<stop offset="1" stop-color="#FFD710"/>
</linearGradient>
<linearGradient id="paint12_linear_15153_6530" x1="9.34653" y1="5.59101" x2="1.19294" y2="3.76809" gradientUnits="userSpaceOnUse">
<stop stop-color="#FFF18A" stop-opacity="0"/>
<stop offset="0.09" stop-color="#FFF18A" stop-opacity="0.03"/>
<stop offset="0.22" stop-color="#FFF18A" stop-opacity="0.1"/>
<stop offset="0.37" stop-color="#FFF18A" stop-opacity="0.23"/>
<stop offset="0.54" stop-color="#FFF18A" stop-opacity="0.41"/>
<stop offset="0.73" stop-color="#FFF18A" stop-opacity="0.63"/>
<stop offset="0.93" stop-color="#FFF18A" stop-opacity="0.9"/>
<stop offset="1" stop-color="#FFF18A"/>
</linearGradient>
<linearGradient id="paint13_linear_15153_6530" x1="0.941477" y1="7.80907" x2="10.6409" y2="7.80907" gradientUnits="userSpaceOnUse">
<stop stop-color="#FFF18A" stop-opacity="0"/>
<stop offset="0.09" stop-color="#FFF18A" stop-opacity="0.03"/>
<stop offset="0.22" stop-color="#FFF18A" stop-opacity="0.1"/>
<stop offset="0.37" stop-color="#FFF18A" stop-opacity="0.23"/>
<stop offset="0.54" stop-color="#FFF18A" stop-opacity="0.41"/>
<stop offset="0.73" stop-color="#FFF18A" stop-opacity="0.63"/>
<stop offset="0.93" stop-color="#FFF18A" stop-opacity="0.9"/>
<stop offset="1" stop-color="#FFF18A"/>
</linearGradient>
<linearGradient id="paint14_linear_15153_6530" x1="10.4319" y1="8.70309" x2="0.461769" y2="6.99834" gradientUnits="userSpaceOnUse">
<stop stop-color="#FFF188"/>
<stop offset="0.07" stop-color="#FFEA68"/>
<stop offset="0.14" stop-color="#FFE44D"/>
<stop offset="0.22" stop-color="#FFDF36"/>
<stop offset="0.31" stop-color="#FFDB25"/>
<stop offset="0.43" stop-color="#FFD919"/>
<stop offset="0.59" stop-color="#FFD712"/>
<stop offset="1" stop-color="#FFD710"/>
</linearGradient>
<linearGradient id="paint15_linear_15153_6530" x1="10.3905" y1="8.86593" x2="2.15612" y2="7.45797" gradientUnits="userSpaceOnUse">
<stop stop-color="#FFF18A" stop-opacity="0"/>
<stop offset="0.09" stop-color="#FFF18A" stop-opacity="0.03"/>
<stop offset="0.22" stop-color="#FFF18A" stop-opacity="0.1"/>
<stop offset="0.37" stop-color="#FFF18A" stop-opacity="0.23"/>
<stop offset="0.54" stop-color="#FFF18A" stop-opacity="0.41"/>
<stop offset="0.73" stop-color="#FFF18A" stop-opacity="0.63"/>
<stop offset="0.93" stop-color="#FFF18A" stop-opacity="0.9"/>
<stop offset="1" stop-color="#FFF18A"/>
</linearGradient>
<linearGradient id="paint16_linear_15153_6530" x1="2.09363" y1="11.2945" x2="11.9561" y2="11.2945" gradientUnits="userSpaceOnUse">
<stop stop-color="#FFF18A" stop-opacity="0"/>
<stop offset="0.09" stop-color="#FFF18A" stop-opacity="0.03"/>
<stop offset="0.22" stop-color="#FFF18A" stop-opacity="0.1"/>
<stop offset="0.37" stop-color="#FFF18A" stop-opacity="0.23"/>
<stop offset="0.54" stop-color="#FFF18A" stop-opacity="0.41"/>
<stop offset="0.73" stop-color="#FFF18A" stop-opacity="0.63"/>
<stop offset="0.93" stop-color="#FFF18A" stop-opacity="0.9"/>
<stop offset="1" stop-color="#FFF18A"/>
</linearGradient>
<linearGradient id="paint17_linear_15153_6530" x1="12.224" y1="11.9514" x2="2.17119" y2="10.8388" gradientUnits="userSpaceOnUse">
<stop stop-color="#FFF188"/>
<stop offset="0.07" stop-color="#FFEA68"/>
<stop offset="0.14" stop-color="#FFE44D"/>
<stop offset="0.22" stop-color="#FFDF36"/>
<stop offset="0.31" stop-color="#FFDB25"/>
<stop offset="0.43" stop-color="#FFD919"/>
<stop offset="0.59" stop-color="#FFD712"/>
<stop offset="1" stop-color="#FFD710"/>
</linearGradient>
<linearGradient id="paint18_linear_15153_6530" x1="12.1929" y1="12.1186" x2="3.89022" y2="11.1997" gradientUnits="userSpaceOnUse">
<stop stop-color="#FFF18A" stop-opacity="0"/>
<stop offset="0.09" stop-color="#FFF18A" stop-opacity="0.03"/>
<stop offset="0.22" stop-color="#FFF18A" stop-opacity="0.1"/>
<stop offset="0.37" stop-color="#FFF18A" stop-opacity="0.23"/>
<stop offset="0.54" stop-color="#FFF18A" stop-opacity="0.41"/>
<stop offset="0.73" stop-color="#FFF18A" stop-opacity="0.63"/>
<stop offset="0.93" stop-color="#FFF18A" stop-opacity="0.9"/>
<stop offset="1" stop-color="#FFF18A"/>
</linearGradient>
<radialGradient id="paint19_radial_15153_6530" cx="0" cy="0" r="1" gradientUnits="userSpaceOnUse" gradientTransform="translate(14.0191 8.88274) scale(6.43895 6.46399)">
<stop stop-color="#FFDF40"/>
<stop offset="1" stop-color="#F6BD1B"/>
</radialGradient>
<linearGradient id="paint20_linear_15153_6530" x1="8.29795" y1="3.14142" x2="19.7812" y2="14.5801" gradientUnits="userSpaceOnUse">
<stop stop-color="#FFF188"/>
<stop offset="0.07" stop-color="#FFEA68"/>
<stop offset="0.14" stop-color="#FFE44D"/>
<stop offset="0.22" stop-color="#FFDF36"/>
<stop offset="0.31" stop-color="#FFDB25"/>
<stop offset="0.43" stop-color="#FFD919"/>
<stop offset="0.59" stop-color="#FFD712"/>
<stop offset="1" stop-color="#FFD710"/>
</linearGradient>
<linearGradient id="paint21_linear_15153_6530" x1="6.35518" y1="6.26475" x2="19.7148" y2="10.7929" gradientUnits="userSpaceOnUse">
<stop stop-color="#FFD710"/>
<stop offset="0.14" stop-color="#FFDF34"/>
<stop offset="0.29" stop-color="#FFE553"/>
<stop offset="0.44" stop-color="#FFEA6B"/>
<stop offset="0.61" stop-color="#FFEE7C"/>
<stop offset="0.79" stop-color="#FFF087"/>
<stop offset="1" stop-color="#FFF18A"/>
</linearGradient>
<linearGradient id="paint22_linear_15153_6530" x1="13.8608" y1="8.86798" x2="18.6367" y2="8.86798" gradientUnits="userSpaceOnUse">
<stop stop-color="#FFF188"/>
<stop offset="0.07" stop-color="#FFEA68"/>
<stop offset="0.14" stop-color="#FFE44D"/>
<stop offset="0.22" stop-color="#FFDF36"/>
<stop offset="0.31" stop-color="#FFDB25"/>
<stop offset="0.43" stop-color="#FFD919"/>
<stop offset="0.59" stop-color="#FFD712"/>
<stop offset="1" stop-color="#FFD710"/>
</linearGradient>
<linearGradient id="paint23_linear_15153_6530" x1="19.017" y1="8.88474" x2="23.7303" y2="8.88474" gradientUnits="userSpaceOnUse">
<stop stop-color="#FFF188"/>
<stop offset="0.07" stop-color="#FFEA68"/>
<stop offset="0.14" stop-color="#FFE44D"/>
<stop offset="0.22" stop-color="#FFDF36"/>
<stop offset="0.31" stop-color="#FFDB25"/>
<stop offset="0.43" stop-color="#FFD919"/>
<stop offset="0.59" stop-color="#FFD712"/>
<stop offset="1" stop-color="#FFD710"/>
</linearGradient>
<linearGradient id="paint24_linear_15153_6530" x1="19.1171" y1="8.88367" x2="23.6798" y2="8.88367" gradientUnits="userSpaceOnUse">
<stop stop-color="#FFD710"/>
<stop offset="0.14" stop-color="#FFDF34"/>
<stop offset="0.29" stop-color="#FFE553"/>
<stop offset="0.44" stop-color="#FFEA6B"/>
<stop offset="0.61" stop-color="#FFEE7C"/>
<stop offset="0.79" stop-color="#FFF087"/>
<stop offset="1" stop-color="#FFF18A"/>
</linearGradient>
<linearGradient id="paint25_linear_15153_6530" x1="13.9623" y1="8.86705" x2="18.5413" y2="8.86705" gradientUnits="userSpaceOnUse">
<stop stop-color="#FFD710"/>
<stop offset="0.14" stop-color="#FFDF34"/>
<stop offset="0.29" stop-color="#FFE553"/>
<stop offset="0.44" stop-color="#FFEA6B"/>
<stop offset="0.61" stop-color="#FFEE7C"/>
<stop offset="0.79" stop-color="#FFF087"/>
<stop offset="1" stop-color="#FFF18A"/>
</linearGradient>
<clipPath id="clip0_15153_6530">
<rect width="28" height="18" fill="white"/>
</clipPath>
</defs>
</svg>
