<svg width="156" height="56" viewBox="0 0 156 56" fill="none" xmlns="http://www.w3.org/2000/svg">
    <g clip-path="url(#clip0_9123_18732)">
        <g clip-path="url(#clip1_9123_18732)">
            <path
                d="M29.8374 17.8447H36.2428V38.4885H29.8374V25.8355L18.725 34.565L7.33117 25.778V38.4885H0.925781V17.8447H7.33117L18.7153 26.4303L29.8374 17.8447Z"
                fill="#1E2455" />
            <path
                d="M66.2538 38.4885L65.39 35.2173H45.5139L44.6502 38.4885H38.0312L43.5438 17.8447H67.3893L72.9018 38.4885H66.2538ZM46.9988 29.4616H63.8663L62.3135 23.5333H48.5419L46.9891 29.4616H46.9988Z"
                fill="#1E2455" />
            <path
                d="M74.6855 38.4885V17.8447H97.9584C100.579 17.8447 102.714 18.6122 104.354 20.147C105.994 21.6819 106.809 23.5716 106.809 25.8068C106.809 27.3608 106.402 28.7614 105.577 30.0276C104.752 31.2939 103.616 32.2531 102.161 32.915L105.858 38.4885H98.2593L95.4254 33.7688H81.2656V38.4885H74.6758H74.6855ZM81.2753 28.0803H97.9681C98.5989 28.0803 99.1424 27.8596 99.5889 27.4184C100.035 26.9771 100.259 26.4399 100.259 25.8068C100.259 25.1736 100.035 24.646 99.5889 24.2048C99.1424 23.7635 98.5989 23.5429 97.9681 23.5429H81.2753V28.0803Z"
                fill="#1E2455" />
            <path
                d="M133.567 25.4521C135.974 25.4521 137.828 26.0181 139.129 27.15C140.429 28.282 141.079 29.7881 141.079 31.6778C141.079 33.8746 140.254 35.6109 138.604 36.8675C136.955 38.1242 134.431 38.7861 131.034 38.8437H118.699C117.108 38.8437 115.71 38.671 114.497 38.3257C113.284 37.9803 112.342 37.5582 111.663 37.0594C110.984 36.5606 110.44 35.9562 110.013 35.256C109.586 34.5557 109.305 33.913 109.178 33.3086C109.052 32.7139 108.984 32.0903 108.984 31.4668H115.574C115.749 32.5316 116.933 33.0592 119.117 33.0592H131.034C133.257 33.0592 134.373 32.6371 134.373 31.7929C134.373 31.0639 133.694 30.6994 132.345 30.6994H117.117C114.575 30.6994 112.634 30.1622 111.304 29.0878C109.974 28.0134 109.305 26.5457 109.305 24.6751C109.305 23.735 109.47 22.8524 109.809 22.0371C110.149 21.2217 110.673 20.4638 111.391 19.7636C112.109 19.0633 113.119 18.5165 114.419 18.1136C115.72 17.7107 117.253 17.4997 119.019 17.4805H131.151C132.743 17.4805 134.14 17.6627 135.353 18.0369C136.566 18.411 137.498 18.8714 138.139 19.4086C138.789 19.9458 139.303 20.5694 139.701 21.2792C140.099 21.9891 140.351 22.603 140.458 23.121C140.565 23.6391 140.623 24.1475 140.623 24.6367H134.033C133.897 23.5719 132.869 23.0443 130.967 23.0443H119.019C116.991 23.0443 115.982 23.476 115.982 24.3393C115.982 25.0684 116.593 25.4329 117.826 25.4329H133.558L133.567 25.4521Z"
                fill="#1E2455" />
        </g>
    </g>
    <g clip-path="url(#clip2_9123_18732)">
        <path
            d="M148.296 9.40793C150.601 9.40793 152.469 11.2759 152.469 13.5804C152.469 15.8849 150.601 17.7529 148.296 17.7529C145.992 17.7529 144.124 15.8849 144.124 13.5804C144.124 11.2759 145.992 9.40793 148.296 9.40793ZM148.296 6.3623C144.306 6.3623 141.078 9.59066 141.078 13.5804C141.078 17.5702 144.306 20.7985 148.296 20.7985C152.286 20.7985 155.514 17.5702 155.514 13.5804C155.514 9.59066 152.286 6.3623 148.296 6.3623Z"
            fill="#F1582E" />
    </g>
    <g clip-path="url(#clip3_9123_18732)">
        <path d="M2.07072 41.6006V46.5742H1.22656V41.6006H2.07072Z" fill="#1E2455" />
        <path d="M6.48272 42.3367V46.5742H5.63856V42.3367H2.94531V41.6006H9.17597V42.3367H6.48272Z"
            fill="#1E2455" />
        <path
            d="M15.3476 46.6437H15.1366C14.7346 46.6437 14.3728 46.6238 14.0512 46.584C13.7296 46.5443 13.4181 46.4846 13.1166 46.395C12.8151 46.3055 12.5639 46.1663 12.373 45.9872C12.172 45.8082 12.0413 45.5893 11.9609 45.3307H12.8553C12.996 45.5794 13.2774 45.7584 13.6794 45.848C14.0814 45.9375 14.624 45.9872 15.3074 45.9872C16.1013 45.9872 16.6842 45.9275 17.056 45.7982C17.4379 45.6689 17.6188 45.4501 17.6188 45.1218V45.0621C17.6188 44.8333 17.5283 44.6642 17.3575 44.5747C17.1866 44.4852 16.8651 44.4255 16.3927 44.4156L14.1417 44.336C13.4382 44.3061 12.9458 44.1967 12.6543 44.0077C12.3629 43.8187 12.2122 43.5104 12.2122 43.0926V43.0429C12.2122 42.4958 12.4534 42.1178 12.9257 41.889C13.398 41.6602 14.1115 41.5508 15.0562 41.5508H15.2572C15.6491 41.5508 16.0008 41.5707 16.3023 41.6105C16.6038 41.6503 16.9053 41.7099 17.1866 41.8094C17.4781 41.8989 17.7092 42.0382 17.9002 42.2172C18.0911 42.3963 18.2217 42.6251 18.3021 42.8936H17.4077C17.2972 42.635 17.046 42.456 16.6641 42.3565C16.2822 42.257 15.7697 42.2073 15.1366 42.2073C14.3829 42.2073 13.8502 42.267 13.5387 42.3963C13.2272 42.5157 13.0764 42.7245 13.0764 43.0031C13.0764 43.2517 13.1669 43.4208 13.3377 43.5104C13.5086 43.5999 13.8301 43.6596 14.3025 43.6695L16.5535 43.7392C17.257 43.769 17.7595 43.8784 18.0509 44.0674C18.3423 44.2564 18.483 44.5648 18.483 44.9825V45.0422C18.483 45.3605 18.4127 45.6291 18.272 45.838C18.1313 46.0568 17.9102 46.216 17.6188 46.3354C17.3273 46.4547 17.0058 46.5343 16.644 46.584C16.2822 46.6338 15.8501 46.6537 15.3375 46.6537L15.3476 46.6437Z"
            fill="#1E2455" />
        <path
            d="M21.8573 46.6436H21.5658C20.7719 46.6436 20.1891 46.5043 19.8072 46.2258C19.4253 45.9473 19.2344 45.4997 19.2344 44.8631V44.5149C19.2344 43.8783 19.4253 43.4207 19.8072 43.1522C20.1891 42.8736 20.782 42.7344 21.5759 42.7344H21.8673C23.214 42.7344 23.9777 43.1422 24.1586 43.9479H23.3446C23.2341 43.7291 23.0532 43.5799 22.8019 43.4904C22.5507 43.4108 22.209 43.361 21.7568 43.361C21.1438 43.361 20.7016 43.4406 20.4303 43.6197C20.1589 43.7888 20.0182 44.1071 20.0182 44.5746V44.7835C20.0182 45.251 20.1589 45.5693 20.4303 45.7384C20.7016 45.9075 21.1438 45.997 21.7568 45.997C22.209 45.997 22.5507 45.9573 22.8019 45.8677C23.0532 45.7782 23.2341 45.629 23.3446 45.4102H24.1586C23.9777 46.2159 23.214 46.6237 21.8673 46.6237L21.8573 46.6436Z"
            fill="#1E2455" />
        <path
            d="M29.3531 44.2465V46.5742H28.5693V44.3758C28.5693 43.9879 28.4487 43.7193 28.2175 43.5801C27.9864 43.4408 27.6648 43.3712 27.2628 43.3712C26.7704 43.3712 26.3885 43.4607 26.1272 43.6497C25.8559 43.8387 25.7253 44.1371 25.7253 44.5648V46.5742H24.9414V41.6006H25.7253V43.5204H25.7655C26.0167 43.0031 26.5895 42.7346 27.4839 42.7346C28.0668 42.7346 28.519 42.844 28.8506 43.0728C29.1823 43.3015 29.3531 43.6895 29.3531 44.2366V44.2465Z"
            fill="#1E2455" />
        <path
            d="M32.9221 46.6434H32.49C31.7061 46.6434 31.1232 46.5042 30.7313 46.2256C30.3394 45.9471 30.1484 45.4896 30.1484 44.8728V44.5247C30.1484 43.8881 30.3394 43.4305 30.7313 43.1619C31.1232 42.8834 31.7061 42.7441 32.5 42.7441H32.9321C33.726 42.7441 34.3089 42.8834 34.7008 43.1619C35.0928 43.4404 35.2837 43.898 35.2837 44.5247V44.8728C35.2837 45.4995 35.0928 45.9471 34.7008 46.2256C34.3089 46.5042 33.726 46.6434 32.9321 46.6434H32.9221ZM31.3443 45.7581C31.6257 45.9272 32.0779 46.0168 32.711 46.0168C33.3442 46.0168 33.7964 45.9272 34.0778 45.7581C34.3592 45.589 34.4998 45.2707 34.4998 44.8032V44.5943C34.4998 44.1268 34.3592 43.8085 34.0778 43.6394C33.7964 43.4703 33.3442 43.3808 32.711 43.3808C32.0779 43.3808 31.6257 43.4603 31.3443 43.6394C31.0629 43.8085 30.9323 44.1268 30.9323 44.5943V44.8032C30.9323 45.2707 31.073 45.589 31.3443 45.7581Z"
            fill="#1E2455" />
        <path
            d="M38.7424 46.6434H38.3103C37.5264 46.6434 36.9435 46.5042 36.5516 46.2256C36.1597 45.9471 35.9688 45.4896 35.9688 44.8728V44.5247C35.9688 43.8881 36.1597 43.4305 36.5516 43.1619C36.9435 42.8834 37.5264 42.7441 38.3203 42.7441H38.7524C39.5464 42.7441 40.1292 42.8834 40.5211 43.1619C40.9131 43.4404 41.104 43.898 41.104 44.5247V44.8728C41.104 45.4995 40.9131 45.9471 40.5211 46.2256C40.1292 46.5042 39.5464 46.6434 38.7524 46.6434H38.7424ZM37.1646 45.7581C37.446 45.9272 37.8982 46.0168 38.5314 46.0168C39.1645 46.0168 39.6167 45.9272 39.8981 45.7581C40.1795 45.589 40.3202 45.2707 40.3202 44.8032V44.5943C40.3202 44.1268 40.1795 43.8085 39.8981 43.6394C39.6167 43.4703 39.1645 43.3808 38.5314 43.3808C37.8982 43.3808 37.446 43.4603 37.1646 43.6394C36.8832 43.8085 36.7526 44.1268 36.7526 44.5943V44.8032C36.7526 45.2707 36.8933 45.589 37.1646 45.7581Z"
            fill="#1E2455" />
        <path d="M42.7292 41.6006V46.5742H41.9453V41.6006H42.7292Z" fill="#1E2455" />
    </g>
    <defs>
        <clipPath id="clip0_9123_18732">
            <rect width="140.152" height="21.3536" fill="white"
                transform="translate(0.925781 17.4902)" />
        </clipPath>
        <clipPath id="clip1_9123_18732">
            <rect width="140.152" height="21.3536" fill="white"
                transform="translate(0.925781 17.4902)" />
        </clipPath>
        <clipPath id="clip2_9123_18732">
            <rect width="14.4362" height="14.4362" fill="white"
                transform="translate(141.078 6.3623)" />
        </clipPath>
        <clipPath id="clip3_9123_18732">
            <rect width="41.5042" height="5.71435" fill="white"
                transform="translate(1.22656 41.5508)" />
        </clipPath>
    </defs>
</svg>
